<?xml version="1.0" encoding="utf-8"?>
<!-- Generator: Adobe Illustrator 25.4.1, SVG Export Plug-In . SVG Version: 6.00 Build 0)  -->
<svg version="1.1" id="Ebene_1" xmlns="http://www.w3.org/2000/svg" xmlns:xlink="http://www.w3.org/1999/xlink" x="0px" y="0px"
	 viewBox="0 0 425 253" style="enable-background:new 0 0 425 253;" xml:space="preserve">
<style type="text/css">
	.st0{fill:#FFFFFF;}
</style>
<g>
	<polygon class="st0" points="104.12,0 104.12,2.672 91.996,2.672 55.622,104.737 45.895,104.737 10.481,2.672 0,2.672 0,0 49.32,0 
		49.32,2.672 35.141,2.672 60.76,81.926 88.913,2.672 72.679,2.672 72.679,0 	"/>
	<polygon class="st0" points="110.079,102.75 110.01,100.078 125.149,100.078 125.149,2.672 110.079,2.672 110.01,0 162.824,0 
		162.824,2.672 146.384,2.672 146.384,100.078 162.824,100.078 162.824,102.75 	"/>
	<path class="st0" d="M183.716,104.12c-2.283,0-4.35-0.559-6.199-1.678c-1.85-1.119-3.334-2.603-4.453-4.453
		s-1.678-3.916-1.678-6.199c0-2.238,0.559-4.304,1.678-6.199c1.119-1.895,2.603-3.391,4.453-4.487
		c1.849-1.096,3.916-1.667,6.199-1.713c2.238,0.046,4.304,0.617,6.199,1.713c1.895,1.096,3.391,2.592,4.487,4.487
		c1.096,1.895,1.644,3.962,1.644,6.199c0,2.283-0.548,4.35-1.644,6.199c-1.096,1.849-2.592,3.334-4.487,4.453
		C188.02,103.561,185.953,104.12,183.716,104.12z M183.716,53.43c-2.283,0-4.35-0.559-6.199-1.678
		c-1.85-1.119-3.334-2.603-4.453-4.453s-1.678-3.916-1.678-6.199c0-2.238,0.559-4.304,1.678-6.199
		c1.119-1.895,2.603-3.391,4.453-4.487c1.849-1.096,3.916-1.667,6.199-1.713c2.238,0.046,4.304,0.617,6.199,1.713
		c1.895,1.096,3.391,2.592,4.487,4.487c1.096,1.895,1.644,3.962,1.644,6.199c0,2.283-0.548,4.35-1.644,6.199
		c-1.096,1.849-2.592,3.334-4.487,4.453C188.02,52.871,185.953,53.43,183.716,53.43z"/>
	<path class="st0" d="M323.593,0v2.672h-9.658v97.407h9.658v2.672h-41.854v-2.672h10.96V0H323.593z M217.692,0v100.078h10.138v2.672
		h-22.674v-2.672h9.727V2.672h-10.48V0H217.692z M254.408,104.12L216.322,0h21.372l27.4,73.774L290.576,0h2.877l-35.894,104.12
		H254.408z"/>
	<path class="st0" d="M424.631,0v2.672h-12.878V71.24c0,11.28-2.694,19.682-8.083,25.208c-5.389,5.526-13.654,8.289-24.797,8.289
		c-12.878,0-22.274-2.626-28.188-7.878s-8.871-13.791-8.871-25.619V2.672h-12.33V0h47.333v2.672h-13.7V69.87
		c0,4.521,0.285,8.677,0.856,12.467c0.571,3.79,1.598,7.078,3.083,9.864c1.484,2.786,3.608,4.943,6.37,6.473
		c2.763,1.53,6.336,2.295,10.72,2.295c4.978,0,9.327-0.982,13.049-2.945s6.633-5.115,8.734-9.453s3.151-10.115,3.151-17.331V2.672
		h-12.398V0H424.631z"/>
	<polygon class="st0" points="47.884,181.75 49.647,181.75 49.647,154.69 60.348,154.69 60.348,153.05 37.183,153.05 37.183,154.69 
		47.884,154.69 	"/>
	<path class="st0" d="M64.284,181.75h1.722v-10.004c0-0.984,0.082-1.927,0.328-2.788c1.025-3.813,4.428-6.519,8.282-6.519
		c4.592,0,5.043,3.362,5.043,6.929v12.382h1.722v-12.997c0-4.838-1.435-7.995-6.765-7.995c-5.125,0-7.995,3.854-8.692,5.781h-0.082
		c0,0,0.164-0.738,0.164-1.681V153.05h-1.722V181.75z"/>
	<path class="st0" d="M88.802,169.614c0.738-4.797,4.223-7.257,7.995-7.257c3.403,0,6.396,2.255,6.601,7.257H88.802z
		 M86.875,171.541c0,6.519,4.797,10.701,10.578,10.701c4.428,0,7.298-2.829,7.298-2.829l-0.943-1.435c0,0-2.419,2.583-6.355,2.583
		c-4.756,0-8.774-3.403-8.774-9.348h16.441c0,0,0.082-0.656,0.082-1.107c0-4.961-2.788-9.348-8.364-9.348
		C91.59,160.758,86.875,164.612,86.875,171.541z"/>
	<path class="st0" d="M130.172,181.75h1.927l10.742-28.7h-1.886l-8.692,23.206c-0.492,1.353-1.107,3.444-1.107,3.444h-0.082
		c0,0-0.615-2.091-1.107-3.444l-8.651-23.206h-1.886L130.172,181.75z"/>
	<path class="st0" d="M147.145,181.75h1.722v-20.5h-1.722V181.75z M146.981,156.043h2.05v-2.993h-2.05V156.043z"/>
	<path class="st0" d="M156.083,181.75h1.722v-8.856c0-1.353,0.164-2.87,0.615-4.305c0.902-3.034,2.911-5.74,6.109-5.74
		c0.451,0,0.943,0.082,0.943,0.082v-1.722c0,0-0.574-0.123-1.189-0.123c-3.239,0-5.535,2.583-6.56,5.74h-0.082
		c0,0,0.164-0.738,0.164-1.681v-3.895h-1.722V181.75z"/>
	<path class="st0" d="M170.597,174.329c0,6.806,4.387,7.585,6.519,7.585c0.615,0,1.025-0.082,1.025-0.082v-1.599
		c0,0-0.369,0.082-0.943,0.082c-1.64,0-4.879-0.697-4.879-6.109v-11.275h5.371v-1.558h-5.371v-5.822h-1.722v5.822h-2.706v1.558
		h2.706V174.329z"/>
	<path class="st0" d="M182.529,174.247c0,5.207,1.722,7.995,6.765,7.995c4.961,0,7.79-3.854,8.487-5.781h0.082
		c0,0-0.164,0.738-0.164,1.681v3.608h1.722v-20.5h-1.722v10.004c0,4.797-3.28,9.307-8.405,9.307c-4.592,0-5.043-3.362-5.043-6.929
		V161.25h-1.722V174.247z"/>
	<path class="st0" d="M206.76,176.174c0-5.33,7.462-5.33,10.947-5.33h1.312v1.107c0,4.059-2.542,8.692-7.011,8.692
		C208.523,180.643,206.76,178.347,206.76,176.174z M204.956,176.297c0,4.1,3.649,5.945,6.97,5.945c5.33,0,7.216-5.043,7.175-5.043
		h0.082c0,0-0.164,0.738-0.164,1.845v2.706h1.722v-13.243c0-5.125-2.542-7.749-7.257-7.749c-4.469,0-6.929,2.255-6.929,2.255
		l0.984,1.394c0,0,2.296-1.968,5.863-1.968c3.28,0,5.617,1.558,5.617,6.109v0.697h-1.353
		C214.016,169.245,204.956,169.327,204.956,176.297z"/>
	<path class="st0" d="M227.465,177.609c0,3.854,2.829,4.305,4.018,4.305c0.369,0,0.738-0.082,0.738-0.082v-1.599
		c0,0-0.287,0.041-0.615,0.041c-0.943,0-2.419-0.328-2.419-3.198V153.05h-1.722V177.609z"/>
	<path class="st0" d="M248.456,181.75h1.763l1.763-21.894c0.123-1.394,0.123-3.895,0.123-3.895h0.082c0,0,0.902,2.542,1.517,3.895
		l7.667,16.359h1.804l7.708-16.359c0.656-1.394,1.476-3.813,1.476-3.813h0.082c0,0,0,2.419,0.123,3.813l1.763,21.894h1.763
		l-2.296-28.7h-1.722l-8.364,18.04c-0.656,1.394-1.394,3.239-1.394,3.239h-0.082c0,0-0.738-1.845-1.394-3.239l-8.364-18.04h-1.722
		L248.456,181.75z"/>
	<path class="st0" d="M283.02,174.247c0,5.207,1.722,7.995,6.765,7.995c4.961,0,7.79-3.854,8.487-5.781h0.082
		c0,0-0.164,0.738-0.164,1.681v3.608h1.722v-20.5h-1.722v10.004c0,4.797-3.28,9.307-8.405,9.307c-4.592,0-5.043-3.362-5.043-6.929
		V161.25h-1.722V174.247z"/>
	<path class="st0" d="M305.365,179.29c0,0,2.46,2.952,7.421,2.952c3.772,0,6.56-2.255,6.56-5.535
		c0-6.806-11.275-5.207-11.275-10.537c0-2.665,2.296-3.731,4.633-3.731c3.485,0,5.166,1.927,5.166,1.927l1.025-1.394
		c0,0-1.886-2.214-6.068-2.214c-3.485,0-6.56,1.886-6.56,5.535c0,6.683,11.275,5.207,11.275,10.414c0,2.542-2.214,3.854-4.715,3.854
		c-4.059,0-6.355-2.583-6.355-2.583L305.365,179.29z"/>
	<path class="st0" d="M325.495,169.614c0.738-4.797,4.223-7.257,7.995-7.257c3.403,0,6.396,2.255,6.601,7.257H325.495z
		 M323.568,171.541c0,6.519,4.797,10.701,10.578,10.701c4.428,0,7.298-2.829,7.298-2.829l-0.943-1.435c0,0-2.419,2.583-6.355,2.583
		c-4.756,0-8.774-3.403-8.774-9.348h16.441c0,0,0.082-0.656,0.082-1.107c0-4.961-2.788-9.348-8.364-9.348
		C328.283,160.758,323.568,164.612,323.568,171.541z"/>
	<path class="st0" d="M347.39,174.247c0,5.207,1.722,7.995,6.765,7.995c4.961,0,7.79-3.854,8.487-5.781h0.082
		c0,0-0.164,0.738-0.164,1.681v3.608h1.722v-20.5h-1.722v10.004c0,4.797-3.28,9.307-8.405,9.307c-4.592,0-5.043-3.362-5.043-6.929
		V161.25h-1.722V174.247z"/>
	<path class="st0" d="M371.498,181.75h1.722v-10.004c0-0.984,0.082-1.927,0.328-2.788c0.943-3.403,3.813-6.601,7.462-6.601
		c4.51,0,5.002,3.485,5.002,7.011v12.382h1.722v-10.004c0-1.189,0.123-2.214,0.41-3.157c0.902-3.198,3.813-6.232,7.216-6.232
		c4.346,0,5.125,3.157,5.125,7.011v12.382h1.722v-12.997c0-4.879-1.558-7.995-6.847-7.995c-3.526,0-6.642,2.706-7.79,5.576h-0.082
		c-0.451-3.649-2.378-5.576-6.478-5.576c-3.198,0-6.847,2.706-7.872,5.781h-0.082c0,0,0.164-0.738,0.164-1.681v-3.608h-1.722V181.75
		z"/>
</g>
<g>
	<path class="st0" d="M151.197,247.248c-0.468,0.468-1.26,0.774-2.161,0.774c-0.972,0-1.782-0.234-2.502-1.171v1.062h-1.296v-12.819
		h1.296v4.987c0.72-0.919,1.53-1.135,2.502-1.135c0.9,0,1.693,0.307,2.161,0.774c0.9,0.9,1.081,2.377,1.081,3.763
		C152.278,244.871,152.097,246.348,151.197,247.248z M148.766,240.1c-1.926,0-2.232,1.656-2.232,3.385s0.306,3.386,2.232,3.386
		c1.927,0,2.215-1.657,2.215-3.386S150.693,240.1,148.766,240.1z"/>
	<path class="st0" d="M157.244,250.057c-0.18,0.486-0.378,0.811-0.63,1.044c-0.468,0.45-1.099,0.612-1.729,0.612h-0.558v-1.152
		h0.396c0.9,0,1.17-0.288,1.458-1.098l0.63-1.729l-3.187-8.679h1.404l2.431,7.112l2.413-7.112h1.404L157.244,250.057z"/>
	<path class="st0" d="M175.282,247.914l-1.026-2.898h-5.6l-1.026,2.898h-1.458l4.718-12.819h1.152l4.699,12.819H175.282z
		 M171.483,237.057l-2.413,6.771h4.79L171.483,237.057z"/>
	<path class="st0" d="M181.364,248.023c-1.494,0-2.665-0.343-3.637-1.278l0.864-0.864c0.702,0.738,1.656,1.025,2.755,1.025
		c1.458,0,2.358-0.521,2.358-1.566c0-0.773-0.45-1.206-1.477-1.296l-1.458-0.126c-1.729-0.145-2.647-0.918-2.647-2.377
		c0-1.62,1.369-2.593,3.26-2.593c1.26,0,2.395,0.307,3.187,0.954l-0.846,0.847c-0.631-0.486-1.441-0.702-2.359-0.702
		c-1.296,0-1.98,0.558-1.98,1.458c0,0.757,0.433,1.207,1.549,1.297l1.422,0.126c1.549,0.144,2.611,0.738,2.611,2.395
		C184.966,247.033,183.507,248.023,181.364,248.023z"/>
	<path class="st0" d="M187.429,236.535v-1.458h1.458v1.458H187.429z M187.501,247.914v-8.858h1.297v8.858H187.501z"/>
	<path class="st0" d="M197.078,247.914v-0.847c-0.72,0.721-1.368,0.955-2.557,0.955c-1.224,0-1.944-0.234-2.503-0.811
		c-0.432-0.433-0.666-1.099-0.666-1.801c0-1.548,1.081-2.557,3.062-2.557h2.664v-0.846c0-1.297-0.647-1.945-2.269-1.945
		c-1.134,0-1.71,0.271-2.232,1.009l-0.882-0.811c0.792-1.026,1.692-1.314,3.133-1.314c2.376,0,3.547,1.026,3.547,2.953v6.014
		H197.078z M197.078,243.828h-2.484c-1.332,0-1.98,0.54-1.98,1.566s0.63,1.512,2.034,1.512c0.757,0,1.423-0.054,1.98-0.594
		c0.307-0.288,0.45-0.792,0.45-1.53V243.828z"/>
	<path class="st0" d="M207.194,247.914v-5.456c0-1.566-0.846-2.358-2.179-2.358c-1.332,0-2.196,0.811-2.196,2.358v5.456h-1.297
		v-8.858h1.297v0.972c0.63-0.72,1.494-1.08,2.484-1.08c0.954,0,1.729,0.288,2.269,0.828c0.631,0.612,0.919,1.44,0.919,2.467v5.672
		H207.194z"/>
	<path class="st0" d="M219.345,247.914l-1.026-2.898h-5.6l-1.026,2.898h-1.459l4.718-12.819h1.152l4.699,12.819H219.345z
		 M215.546,237.057l-2.412,6.771h4.789L215.546,237.057z"/>
	<path class="st0" d="M227.589,240.748c-0.486-0.486-0.847-0.648-1.531-0.648c-1.296,0-2.124,1.026-2.124,2.377v5.438h-1.297v-8.858
		h1.297v1.08c0.486-0.738,1.458-1.188,2.484-1.188c0.847,0,1.495,0.198,2.125,0.828L227.589,240.748z"/>
	<path class="st0" d="M232.7,247.914c-1.513,0-2.269-1.062-2.269-2.377V240.1h-1.116v-0.99h1.116v-2.772h1.296v2.772h1.891v0.99
		h-1.891v5.401c0,0.811,0.378,1.297,1.206,1.297h0.685v1.116H232.7z"/>
	<path class="st0" d="M236.64,242.495v-1.692h1.692v1.692H236.64z M236.64,247.914v-1.692h1.692v1.692H236.64z"/>
	<path class="st0" d="M243.138,236.319v4.718h5.618v1.225h-5.618v5.653h-1.368v-12.819h7.958v1.224H243.138z"/>
	<path class="st0" d="M257.035,247.914v-0.99c-0.63,0.72-1.512,1.099-2.502,1.099c-0.955,0-1.747-0.288-2.287-0.828
		c-0.63-0.612-0.9-1.459-0.9-2.485v-5.653h1.297v5.455c0,1.566,0.828,2.359,2.16,2.359c1.333,0,2.215-0.811,2.215-2.359v-5.455
		h1.296v8.858H257.035z"/>
	<path class="st0" d="M264.036,247.914c-1.513,0-2.269-1.062-2.269-2.377V240.1h-1.116v-0.99h1.116v-2.772h1.296v2.772h1.891v0.99
		h-1.891v5.401c0,0.811,0.378,1.297,1.206,1.297h0.685v1.116H264.036z"/>
	<path class="st0" d="M273.127,247.914v-0.99c-0.63,0.72-1.512,1.099-2.502,1.099c-0.955,0-1.747-0.288-2.287-0.828
		c-0.63-0.612-0.9-1.459-0.9-2.485v-5.653h1.297v5.455c0,1.566,0.828,2.359,2.16,2.359c1.333,0,2.215-0.811,2.215-2.359v-5.455
		h1.296v8.858H273.127z"/>
	<path class="st0" d="M282.594,240.748c-0.486-0.486-0.847-0.648-1.531-0.648c-1.296,0-2.124,1.026-2.124,2.377v5.438h-1.297v-8.858
		h1.297v1.08c0.486-0.738,1.458-1.188,2.484-1.188c0.847,0,1.495,0.198,2.125,0.828L282.594,240.748z"/>
	<path class="st0" d="M285.416,243.828c0,1.944,0.918,3.061,2.61,3.061c1.026,0,1.621-0.306,2.323-1.008l0.882,0.773
		c-0.9,0.9-1.729,1.369-3.24,1.369c-2.341,0-3.871-1.404-3.871-4.538c0-2.862,1.386-4.537,3.637-4.537
		c2.287,0,3.637,1.656,3.637,4.285v0.595H285.416z M289.827,241.378c-0.342-0.811-1.134-1.332-2.07-1.332s-1.729,0.521-2.07,1.332
		c-0.198,0.486-0.234,0.757-0.271,1.477h4.682C290.061,242.135,290.025,241.865,289.827,241.378z"/>
</g>
</svg>
