<?xml version="1.0" encoding="utf-8"?>
<!-- Generator: Adobe Illustrator 25.4.1, SVG Export Plug-In . SVG Version: 6.00 Build 0)  -->
<svg version="1.1" id="Ebene_1" xmlns="http://www.w3.org/2000/svg" xmlns:xlink="http://www.w3.org/1999/xlink" x="0px" y="0px"
	 viewBox="0 0 15 15" style="enable-background:new 0 0 15 15;" xml:space="preserve">
<style type="text/css">
	.st0{fill:#FFFFFF;}
</style>
<g id="Button_close" transform="translate(21.2 21.199)">
	<path class="st0" d="M-7.264-6.199c-0.273,0-0.545-0.104-0.753-0.312l-12.871-12.871c-0.415-0.416-0.415-1.09,0-1.505
		c0.416-0.416,1.091-0.416,1.507,0L-6.511-8.016c0.415,0.416,0.415,1.09,0,1.505C-6.719-6.303-6.992-6.199-7.264-6.199z"/>
	<path class="st0" d="M-20.136-6.199c-0.273,0-0.545-0.104-0.753-0.312c-0.415-0.416-0.415-1.09,0-1.505l12.871-12.871
		c0.416-0.416,1.091-0.416,1.507,0c0.415,0.416,0.415,1.09,0,1.505L-19.382-6.511C-19.59-6.303-19.863-6.199-20.136-6.199z"/>
</g>
</svg>
