<?xml version="1.0" encoding="utf-8"?>
<!-- Generator: Adobe Illustrator 25.4.1, SVG Export Plug-In . SVG Version: 6.00 Build 0)  -->
<svg version="1.1" id="Ebene_1" xmlns="http://www.w3.org/2000/svg" xmlns:xlink="http://www.w3.org/1999/xlink" x="0px" y="0px"
	 viewBox="0 0 30 22" style="enable-background:new 0 0 30 22;" xml:space="preserve">
<style type="text/css">
	.st0{fill:#FFFFFF;}
</style>
<path class="st0" d="M29.961,15.428c0.407-3.845-2.381-7.291-6.225-7.698C23.222,3.32,19.483-0.005,15.044,0h-0.005
	c-0.347,0-0.693,0.022-1.038,0.063C9.204,0.642,5.784,4.999,6.363,9.796H5.948C2.663,9.796,0,12.459,0,15.744
	c0,3.285,2.663,5.948,5.948,5.948h17.144C26.636,21.645,29.587,18.954,29.961,15.428z M18.825,13.306l-3.362,3.361
	c-0.093,0.103-0.219,0.174-0.36,0.198c-0.211,0.036-0.422-0.041-0.561-0.193l-3.367-3.367c-0.243-0.243-0.243-0.637,0-0.88
	c0.122-0.121,0.281-0.183,0.44-0.183s0.318,0.061,0.44,0.183l2.323,2.323V7.569c0-0.343,0.279-0.622,0.622-0.622
	c0.343,0,0.622,0.278,0.622,0.622v7.178l2.323-2.323c0.243-0.243,0.637-0.243,0.88,0C19.067,12.668,19.067,13.062,18.825,13.306z"/>
</svg>
