<?xml version="1.0" encoding="utf-8"?>
<!-- Generator: Adobe Illustrator 25.4.1, SVG Export Plug-In . SVG Version: 6.00 Build 0)  -->
<svg version="1.1" id="Ebene_1" xmlns="http://www.w3.org/2000/svg" xmlns:xlink="http://www.w3.org/1999/xlink" x="0px" y="0px"
	 viewBox="0 0 30 30" style="enable-background:new 0 0 30 30;" xml:space="preserve">
<style type="text/css">
	.st0{fill:#FF0000;}
</style>
<path class="st0" d="M18.297,15.284l-1.542,1.542l-1.541,1.541l-0.003-0.003l1.54-1.54l0,0l1.54-1.54l-3.079-3.079l0.002-0.002
	L18.297,15.284L28.614,4.968c0.851-0.851,0.851-2.23,0-3.083c-0.851-0.851-2.232-0.851-3.083,0L15.215,12.2L4.9,1.885
	c-0.851-0.851-2.232-0.851-3.083,0c-0.851,0.851-0.851,2.23,0,3.083L12.13,15.281l-0.001,0.001l0.003,0.003L1.817,25.6
	c-0.851,0.853-0.851,2.232,0,3.083c0.426,0.426,0.982,0.638,1.542,0.638c0.556,0,1.116-0.213,1.542-0.638l10.316-10.316
	l10.315,10.316c0.425,0.426,0.982,0.638,1.542,0.638c0.558,0,1.116-0.213,1.542-0.638c0.851-0.851,0.851-2.23,0-3.083L18.297,15.284
	z"/>
</svg>
