<?xml version="1.0" encoding="utf-8"?>
<!-- Generator: Adobe Illustrator 26.0.2, SVG Export Plug-In . SVG Version: 6.00 Build 0)  -->
<svg width="21px" height="21px" version="1.1" id="Ebene_1" xmlns="http://www.w3.org/2000/svg" xmlns:xlink="http://www.w3.org/1999/xlink" x="0px" y="0px"
	 viewBox="0 0 21 21" style="enable-background:new 0 0 21 21;" xml:space="preserve">
<style type="text/css">
	.st0{fill:#1D1D1B;}
	.st1{fill:#FFFFFF;}
</style>
<path class="st0" d="M17.808,12.822l-0.001-0.402V8.972c-0.001-0.49-0.4-0.886-0.89-0.885c-0.488,0.001-0.884,0.397-0.885,0.885
	v0.925c-0.001,0.363-0.295,0.657-0.658,0.657H15.36c-0.363,0-0.657-0.294-0.657-0.657V7.99c-0.001-0.49-0.4-0.886-0.89-0.885
	c-0.488,0.001-0.884,0.397-0.885,0.885v1.907c0,0.363-0.294,0.657-0.657,0.657h-0.015c-0.363,0-0.657-0.294-0.657-0.657V7.132
	c-0.001-0.49-0.4-0.886-0.89-0.885C10.22,6.249,9.824,6.644,9.823,7.132v2.764c-0.001,0.363-0.295,0.657-0.658,0.657H9.15
	c-0.363,0-0.657-0.294-0.657-0.657V1.688c-0.001-0.49-0.4-0.886-0.89-0.885C7.115,0.805,6.719,1.201,6.718,1.688v11.309
	c0,0.363-0.294,0.657-0.658,0.657c-0.187,0-0.366-0.08-0.491-0.22c-0.063-0.071-0.125-0.137-0.185-0.197l-0.013-0.013
	c-0.565-0.565-1.182-0.912-1.783-1.004C3.105,12.147,2.611,12.253,2.2,12.52l5.885,5.885c1.087,1.107,2.562,1.749,4.113,1.79
	c1.487,0.034,2.923-0.544,3.972-1.6C17.767,16.998,17.809,15.06,17.808,12.822L17.808,12.822z"/>
<path class="st1" d="M18.612,12.63l-0.001-3.657c0.001-0.933-0.754-1.69-1.687-1.691c-0.449,0-0.88,0.178-1.198,0.496
	c-0.082,0.082-0.156,0.173-0.22,0.27V7.99c0.001-0.933-0.754-1.69-1.687-1.691c-0.45,0-0.881,0.178-1.198,0.497
	c-0.082,0.083-0.156,0.173-0.22,0.271c-0.035-0.932-0.82-1.659-1.752-1.624c-0.426,0.016-0.83,0.193-1.132,0.495
	C9.434,6.02,9.36,6.11,9.296,6.208V1.688C9.295,0.755,8.537-0.001,7.603,0C6.671,0.001,5.916,0.756,5.914,1.688v10.943
	c-0.681-0.672-1.442-1.089-2.205-1.205c-0.851-0.129-1.676,0.13-2.385,0.747L1,12.456l6.518,6.518
	c1.233,1.254,2.906,1.98,4.664,2.025C12.227,21,12.273,21,12.318,21c1.66,0.004,3.252-0.658,4.42-1.836
	C18.616,17.285,18.614,15.024,18.612,12.63z M12.199,20.195c-1.551-0.041-3.026-0.683-4.113-1.79L2.2,12.52
	c0.411-0.267,0.905-0.373,1.389-0.299c0.601,0.092,1.218,0.439,1.783,1.004l0.013,0.013c0.06,0.06,0.122,0.126,0.185,0.197
	c0.242,0.271,0.657,0.295,0.928,0.054c0.14-0.125,0.22-0.303,0.22-0.491V1.688c0.001-0.49,0.4-0.886,0.89-0.885
	c0.488,0.001,0.883,0.397,0.885,0.885v8.208c0,0.363,0.294,0.657,0.657,0.657h0.015c0.363,0,0.657-0.294,0.658-0.657V7.132
	c0.001-0.49,0.4-0.886,0.89-0.885c0.488,0.001,0.884,0.397,0.885,0.885v2.764c0,0.363,0.295,0.657,0.657,0.657h0.015
	c0.363,0,0.657-0.294,0.657-0.657V7.99c0.001-0.49,0.4-0.886,0.89-0.885c0.488,0.001,0.884,0.397,0.885,0.885v1.907
	c0,0.363,0.294,0.657,0.657,0.657h0.015c0.363,0,0.657-0.294,0.658-0.657V8.972c0.001-0.49,0.4-0.886,0.89-0.885
	c0.488,0.001,0.884,0.397,0.885,0.885v3.448l0.001,0.402h0c0.001,2.238-0.042,4.176-1.638,5.773
	C15.122,19.651,13.686,20.23,12.199,20.195L12.199,20.195z"/>
</svg>
