<?xml version="1.0" encoding="utf-8"?>
<!-- Generator: Adobe Illustrator 26.0.3, SVG Export Plug-In . SVG Version: 6.00 Build 0)  -->
<svg version="1.1" id="Ebene_1" xmlns="http://www.w3.org/2000/svg" xmlns:xlink="http://www.w3.org/1999/xlink" x="0px" y="0px"
	 viewBox="0 0 512 512" style="enable-background:new 0 0 512 512;" xml:space="preserve">
<style type="text/css">
	.st0{fill:#FFFFFF;}
</style>
<g>
	<path class="st0" d="M329.8332,247.1396V95.5761c-0.6095-39.9086-32.8168-72.1159-72.7254-72.7251
		c-40.7763-0.6092-74.3505,31.9491-74.96,72.7251v151.5635c0.6095,39.9087,32.8168,72.1159,72.7254,72.7251
		C295.6497,320.4739,329.2236,287.9156,329.8332,247.1396z"/>
	<path class="st0" d="M395.1347,221.7833c-12.7427,0-23.0845,11.1173-23.0845,23.86c0,63.9895-52.0607,116.0502-116.0502,116.0502
		c-63.9907,0-116.0502-52.0607-116.0502-116.0502v-1.551c0-12.7427-10.3418-22.309-23.0845-22.309s-23.0845,11.1173-23.0845,23.86
		c0,81.5825,60.6024,149.1147,139.1156,160.3876v0.0034v60.0388c0,12.7427,10.3418,23.0845,23.0845,23.0845
		s23.0845-10.3418,23.0845-23.0845v-60.0388h0.0192c78.5244-11.2841,139.1347-78.9302,139.1347-161.9419
		C418.2192,231.3496,407.8774,221.7833,395.1347,221.7833z"/>
</g>
</svg>
