<?xml version="1.0" encoding="utf-8"?>
<!-- Generator: Adobe Illustrator 25.4.1, SVG Export Plug-In . SVG Version: 6.00 Build 0)  -->
<svg version="1.1" id="Ebene_1" xmlns="http://www.w3.org/2000/svg" xmlns:xlink="http://www.w3.org/1999/xlink" x="0px" y="0px"
	 viewBox="0 0 35 35" style="enable-background:new 0 0 35 35;" xml:space="preserve">
<style type="text/css">
	.st0{fill:#FFFFFF;}
</style>
<g>
	<path class="st0" d="M17.5,0C7.8,0,0,7.8,0,17.5S7.8,35,17.5,35S35,27.2,35,17.5S27.2,0,17.5,0z M26.8,21.3c0,0.8-0.2,1.5-0.4,2.3
		c-0.5,1.3-1.5,2.2-2.7,2.7c-0.7,0.3-1.5,0.4-2.3,0.4c-1,0-1.3,0.1-3.8,0.1s-2.9,0-3.8-0.1c-0.8,0-1.5-0.2-2.3-0.4
		c-1.3-0.5-2.2-1.5-2.7-2.7c-0.3-0.7-0.4-1.5-0.4-2.3c0-1-0.1-1.3-0.1-3.8s0-2.9,0.1-3.8c0-0.8,0.2-1.5,0.4-2.3
		c0.5-1.3,1.5-2.2,2.7-2.7c0.7-0.3,1.5-0.4,2.3-0.4c1,0,1.3-0.1,3.8-0.1s2.9,0,3.8,0.1c0.8,0,1.5,0.2,2.3,0.4
		c1.3,0.5,2.2,1.5,2.7,2.7c0.3,0.7,0.4,1.5,0.4,2.3c0,1,0.1,1.3,0.1,3.8C26.8,20,26.8,20.3,26.8,21.3z"/>
	<path class="st0" d="M24.8,12c-0.3-0.8-1-1.5-1.8-1.8c-0.6-0.2-1.1-0.3-1.7-0.3c-1,0-1.3-0.1-3.8-0.1h-0.8c-1.7,0-2.1,0-2.9,0.1
		c-0.6,0-1.2,0.1-1.7,0.3c-0.8,0.3-1.5,1-1.8,1.8c-0.2,0.6-0.3,1.1-0.3,1.7c0,1-0.1,1.3-0.1,3.8s0,2.8,0.1,3.8
		c0,0.6,0.1,1.2,0.3,1.7c0.3,0.8,1,1.5,1.8,1.8c0.6,0.2,1.1,0.3,1.7,0.3c1,0,1.3,0.1,3.8,0.1s2.8,0,3.8-0.1c0.6,0,1.2-0.1,1.7-0.3
		c0.8-0.3,1.5-1,1.8-1.8c0.2-0.6,0.3-1.1,0.3-1.7c0-1,0.1-1.3,0.1-3.8s0-2.8-0.1-3.8C25.1,13.1,25,12.5,24.8,12z M17.5,22.3
		c-2.6,0-4.8-2.1-4.8-4.8c0-2.6,2.1-4.8,4.8-4.8c2.6,0,4.8,2.1,4.8,4.8C22.3,20.1,20.1,22.3,17.5,22.3z M22.5,13.6
		c-0.6,0-1.1-0.5-1.1-1.1s0.5-1.1,1.1-1.1c0.6,0,1.1,0.5,1.1,1.1S23.1,13.6,22.5,13.6z"/>
	<path class="st0" d="M17.5,14.4c-1.7,0-3.1,1.4-3.1,3.1s1.4,3.1,3.1,3.1s3.1-1.4,3.1-3.1S19.2,14.4,17.5,14.4z"/>
</g>
</svg>
