<?xml version="1.0" encoding="utf-8"?>
<!-- Generator: Adobe Illustrator 27.1.1, SVG Export Plug-In . SVG Version: 6.00 Build 0)  -->
<svg version="1.1" id="Ebene_1" xmlns="http://www.w3.org/2000/svg" xmlns:xlink="http://www.w3.org/1999/xlink" x="0px" y="0px"
	 viewBox="0 0 30 30" style="enable-background:new 0 0 30 30;" xml:space="preserve">
<style type="text/css">
	.st0{fill:#FFFFFF;}
</style>
<path class="st0" d="M15,0C6.7,0,0,6.7,0,15c0,8.3,6.7,15,15,15c8.3,0,15-6.7,15-15C30,6.7,23.3,0,15,0z M10.6,21.6H7.7v-9.3h2.9
	V21.6z M9.1,11.1c-1.1,0-1.8-0.7-1.8-1.6S8,7.9,9.1,7.9c1.1,0,1.7,0.7,1.8,1.6C10.9,10.4,10.2,11.1,9.1,11.1z M19,21.6v-4.8
	c0-1.3-0.5-2.1-1.7-2.1c-0.9,0-1.4,0.6-1.6,1.1c-0.1,0.2-0.1,0.5-0.1,0.8v5h-3.3c0,0,0-8.5,0-9.3h3.3v1.5c0.2-0.6,1.2-1.6,2.9-1.6
	c2.1,0,3.7,1.3,3.7,4.2v5.2H19z"/>
</svg>
