<?xml version="1.0" encoding="utf-8"?>
<!-- Generator: Adobe Illustrator 25.4.1, SVG Export Plug-In . SVG Version: 6.00 Build 0)  -->
<svg version="1.1" id="Ebene_1" xmlns="http://www.w3.org/2000/svg" xmlns:xlink="http://www.w3.org/1999/xlink" x="0px" y="0px"
	 viewBox="0 0 36 24" style="enable-background:new 0 0 36 24;" xml:space="preserve">
<style type="text/css">
	.st0{fill:#FFFFFF;}
</style>
<path class="st0" d="M18.659,13.48L33.941,0.503c0.112-0.096,0.117-0.226,0.083-0.316C33.991,0.097,33.903,0,33.756,0H2.386
	C2.239,0,2.152,0.096,2.118,0.186C2.084,0.277,2.088,0.406,2.2,0.502l15.096,12.974C17.691,13.814,18.264,13.816,18.659,13.48z"/>
<path class="st0" d="M35.836,1.985c-0.04-0.019-0.081-0.028-0.122-0.028c-0.066,0-0.13,0.023-0.183,0.069l-10.571,8.978
	c-0.234,0.199-0.37,0.49-0.371,0.797c0,0.307,0.132,0.598,0.366,0.798l10.574,9.089c0.087,0.076,0.201,0.091,0.305,0.043
	C35.937,21.683,36,21.585,36,21.472V2.244C36.002,2.13,35.939,2.033,35.836,1.985z"/>
<path class="st0" d="M11.581,11.936c0-0.307-0.132-0.598-0.366-0.798L0.471,1.904c-0.054-0.046-0.118-0.07-0.184-0.07
	c-0.04,0-0.081,0.009-0.121,0.027C0.063,1.909,0,2.006,0,2.12v19.515c0,0.115,0.062,0.211,0.165,0.259
	c0.104,0.046,0.217,0.033,0.305-0.042l10.74-9.12C11.445,12.534,11.58,12.243,11.581,11.936z"/>
<path class="st0" d="M23.014,13.819c-0.394-0.338-0.967-0.34-1.363-0.004l-2.87,2.438c-0.471,0.399-1.153,0.398-1.621-0.005
	l-2.652-2.278c-0.197-0.17-0.44-0.255-0.684-0.255c-0.24,0-0.481,0.084-0.678,0.251L2.262,23.207
	c-0.112,0.096-0.117,0.226-0.083,0.316c0.033,0.091,0.122,0.187,0.268,0.187h31.303c0.145,0,0.234-0.096,0.268-0.186
	c0.033-0.09,0.029-0.22-0.082-0.316L23.014,13.819z"/>
</svg>
