<?xml version="1.0" encoding="utf-8"?>
<!-- Generator: Adobe Illustrator 25.0.0, SVG Export Plug-In . SVG Version: 6.00 Build 0)  -->
<svg version="1.1" id="Ebene_1" xmlns="http://www.w3.org/2000/svg" xmlns:xlink="http://www.w3.org/1999/xlink" x="0px" y="0px"
	 viewBox="0 0 16 16" style="enable-background:new 0 0 16 16;" xml:space="preserve">
<style type="text/css">
	.st0{fill-rule:evenodd;clip-rule:evenodd;fill:#ffffff;}
</style>
<g>
	<path class="st0" d="M15.812,5.555c0.277,0.277,0.277,0.726,0,1.003l-4.654,4.654c-0.264,0.29-0.713,0.311-1.003,0.047
		c-0.29-0.264-0.311-0.713-0.047-1.003c0.015-0.016,0.03-0.032,0.047-0.047l4.153-4.152l-4.153-4.152
		c-0.29-0.264-0.311-0.713-0.047-1.003c0.264-0.29,0.713-0.311,1.003-0.047c0.016,0.015,0.032,0.03,0.047,0.047L15.812,5.555z"/>
	<path class="st0" d="M0,5.3h15v1.5H0V5.3z"/>
</g>
</svg>
