<?xml version="1.0" encoding="utf-8"?>
<!-- Generator: Adobe Illustrator 25.0.0, SVG Export Plug-In . SVG Version: 6.00 Build 0)  -->
<svg version="1.1" id="Ebene_1" xmlns="http://www.w3.org/2000/svg" xmlns:xlink="http://www.w3.org/1999/xlink" x="0px" y="0px" viewBox="0 0 29 26" style="enable-background:new 0 0 29 26;" xml:space="preserve">
                    <style type="text/css">
                        .st0 {
                            fill: #FFFFFF;
                        }
                    </style>
                    <path class="st0" d="M26.5,22.817V3.183C26.5,1.977,25.522,1,24.317,1H4.683C3.477,1,2.5,1.977,2.5,3.183v19.634
						C2.5,24.023,3.478,25,4.683,25h19.634C25.522,25,26.5,24.023,26.5,22.817z M12.789,11.312c-0.269,0.269-0.705,0.269-0.974,0
						L7.613,7.11v3.635c0,0.38-0.308,0.689-0.688,0.689c-0.38,0-0.688-0.308-0.688-0.689v-5.26C6.229,5.332,6.272,5.178,6.364,5.049
						c0.137-0.194,0.362-0.298,0.59-0.288h5.268c0.38,0,0.688,0.308,0.688,0.688c0,0.19-0.077,0.362-0.202,0.487
						c-0.125,0.124-0.297,0.202-0.487,0.202H8.586l4.202,4.202C13.057,10.607,13.057,11.043,12.789,11.312z M22.707,20.531
						c0.008,0.153-0.035,0.307-0.127,0.436c-0.138,0.194-0.362,0.298-0.59,0.288h-5.268c-0.38,0-0.688-0.308-0.689-0.688
						c0-0.19,0.077-0.362,0.202-0.487c0.124-0.124,0.296-0.202,0.487-0.202h3.634l-4.202-4.202c-0.269-0.269-0.269-0.705,0-0.974
						s0.705-0.269,0.974,0l4.202,4.202v-3.635c0-0.38,0.309-0.689,0.689-0.689s0.688,0.308,0.688,0.689L22.707,20.531L22.707,20.531z" />
                </svg>
