<?xml version="1.0" encoding="utf-8"?>
<!-- Generator: Adobe Illustrator 25.4.1, SVG Export Plug-In . SVG Version: 6.00 Build 0)  -->
<svg version="1.1" id="Ebene_1" xmlns="http://www.w3.org/2000/svg" xmlns:xlink="http://www.w3.org/1999/xlink" x="0px" y="0px"
	 viewBox="0 0 14 15" style="enable-background:new 0 0 14 15;" xml:space="preserve">
<style type="text/css">
	.st0{fill:#FFFFFF;}
</style>
<g id="Gruppe_1639_00000019679422598987461860000007661183660612464549_">
	<path id="Pfad_1784_00000039093812113173929920000008725784965992839585_" class="st0" d="M9.736,2.728L8.767,3.696L7.683,2.612
		v7.616h-1.35V2.612L5.249,3.696L4.281,2.728L7.008,0L9.736,2.728z M12.464,6.137v7.5c-0.002,0.752-0.612,1.362-1.364,1.363H2.917
		c-0.753,0-1.363-0.61-1.363-1.363v-7.5c-0.003-0.75,0.603-1.361,1.353-1.364c0.003,0,0.007,0,0.01,0h2.046v1.364H2.917v7.5h8.182
		v-7.5H9.054V4.772h2.046C11.852,4.772,12.463,5.383,12.464,6.137C12.463,6.136,12.463,6.136,12.464,6.137L12.464,6.137z"/>
</g>
</svg>
