<?xml version="1.0" encoding="UTF-8"?><svg id="Ebene_1" xmlns="http://www.w3.org/2000/svg" viewBox="0 0 40 40"><defs><style>.cls-1{fill:none;}.cls-2{fill:#24212e;}.cls-3{fill:#537df1;}</style></defs><path class="cls-1" d="M20,0C31.04569,0,40,8.9543,40,20s-8.95431,20-20,20S0,31.04569,0,20,8.9543,0,20,0Z"/><circle class="cls-1" cx="20" cy="20" r="17.037"/><path class="cls-1" d="M20,0c11.04569,0,20,8.9543,20,20s-8.95431,20-20,20S0,31.04569,0,20,8.95431,0,20,0Z"/><path class="cls-3" d="M20,3c-4.54088,0-8.80996,1.76827-12.02084,4.97907-3.21086,3.21079-4.97916,7.47974-4.97916,12.02047s1.7683,8.80968,4.97916,12.02047c3.21088,3.2108,7.47996,4.97907,12.02084,4.97907s8.80996-1.76827,12.02084-4.97907c3.21086-3.21079,4.97916-7.47974,4.97916-12.02047s-1.7683-8.80968-4.97916-12.02047c-3.21088-3.2108-7.47996-4.97907-12.02084-4.97907M20,0C31.04569,0,40,8.9541,40,19.99954s-8.95431,19.99954-20,19.99954S0,31.04498,0,19.99954,8.95431,0,20,0Z"/><circle class="cls-1" cx="20" cy="19.99954" r="17.037"/><path class="cls-2" d="M20,37.03613c-9.39453,0-17.03711-7.64258-17.03711-17.03662C2.96289,10.60498,10.60547,2.9624,20,2.9624s17.03711,7.64258,17.03711,17.03711c0,9.39404-7.64258,17.03662-17.03711,17.03662Zm0-32.07373c-8.2915,0-15.03711,6.74561-15.03711,15.03711s6.74561,15.03662,15.03711,15.03662c8.29102,0,15.03711-6.74512,15.03711-15.03662s-6.74609-15.03711-15.03711-15.03711Z"/></svg>