<?xml version="1.0" encoding="utf-8"?>
<!-- Generator: Adobe Illustrator 25.4.1, SVG Export Plug-In . SVG Version: 6.00 Build 0)  -->
<svg version="1.1" id="Ebene_1" xmlns="http://www.w3.org/2000/svg" xmlns:xlink="http://www.w3.org/1999/xlink" x="0px" y="0px"
	 viewBox="0 0 16 16" style="enable-background:new 0 0 16 16;" xml:space="preserve">
<style type="text/css">
	.st0{fill:#FFFFFF;}
</style>
<path class="st0" d="M0.516,5.802v4.392c0,0.514,0.416,0.931,0.929,0.931c0,0,0.001,0,0.002,0h1.98l4.059,3.111
	c0.466,0.364,1.139,0.281,1.503-0.185c0.151-0.194,0.231-0.434,0.227-0.68V2.609c-0.007-0.6-0.5-1.08-1.1-1.072
	C7.883,1.54,7.655,1.619,7.469,1.761l-4.042,3.11h-1.98C0.934,4.87,0.517,5.286,0.517,5.8C0.516,5.801,0.516,5.801,0.516,5.802z"/>
<path class="st0" d="M15.484,7.981c0-2.411-1.423-4.565-3.31-5.01c-0.269-0.061-0.538,0.103-0.601,0.372s0.103,0.538,0.372,0.602
	c1.424,0.336,2.54,2.109,2.54,4.037c0,1.949-1.116,3.739-2.54,4.075c-0.269,0.063-0.435,0.333-0.372,0.602
	c0.054,0.23,0.259,0.385,0.486,0.385c0.038,0,0.077-0.004,0.115-0.013C14.061,12.584,15.484,10.413,15.484,7.981z"/>
<path class="st0" d="M10.99,9.946c-0.238,0.14-0.318,0.446-0.179,0.684c0.093,0.159,0.26,0.247,0.432,0.247
	c0.086,0,0.173-0.022,0.253-0.069C12.42,10.267,12.993,9.191,12.993,8c0-1.19-0.574-2.266-1.497-2.808
	c-0.238-0.14-0.545-0.06-0.685,0.178s-0.06,0.544,0.178,0.684C11.598,6.412,11.993,7.176,11.993,8S11.599,9.588,10.99,9.946z"/>
</svg>
