<?xml version="1.0" encoding="utf-8"?>
<!-- Generator: Adobe Illustrator 25.4.1, SVG Export Plug-In . SVG Version: 6.00 Build 0)  -->
<svg version="1.1" id="Ebene_1" xmlns="http://www.w3.org/2000/svg" xmlns:xlink="http://www.w3.org/1999/xlink" x="0px" y="0px"
	 viewBox="0 0 16 16" style="enable-background:new 0 0 16 16;" xml:space="preserve">
<style type="text/css">
	.st0{fill:#FFFFFF;}
</style>
<path class="st0" d="M11.138,14.343l3.207-3.219c0.227-0.227,0.354-0.534,0.354-0.855V5.731c0-0.321-0.128-0.629-0.355-0.856
	l-3.219-3.22C10.897,1.428,10.589,1.3,10.268,1.3H5.732c-0.321,0-0.629,0.128-0.856,0.355l-3.22,3.22
	C1.429,5.102,1.301,5.41,1.301,5.731v4.549c0,0.322,0.128,0.63,0.356,0.858l3.219,3.209C5.103,14.573,5.411,14.7,5.731,14.7h4.549
	C10.602,14.7,10.91,14.571,11.138,14.343z M5.69,11.033c-0.096,0.096-0.223,0.145-0.349,0.145c-0.126,0-0.252-0.048-0.349-0.145
	c-0.193-0.193-0.193-0.505,0-0.698l2.336-2.336L4.992,5.663c-0.193-0.193-0.193-0.505,0-0.698s0.505-0.193,0.698,0l2.336,2.336
	l2.336-2.336c0.192-0.193,0.505-0.193,0.698,0s0.193,0.505,0,0.698L8.724,7.999l2.336,2.336c0.193,0.193,0.193,0.505,0,0.698
	c-0.097,0.096-0.223,0.145-0.349,0.145c-0.126,0-0.252-0.048-0.349-0.145L8.026,8.697L5.69,11.033z"/>
</svg>
