<?xml version="1.0" encoding="utf-8"?>
<!-- Generator: Adobe Illustrator 25.4.1, SVG Export Plug-In . SVG Version: 6.00 Build 0)  -->
<svg version="1.1" id="Ebene_1" xmlns="http://www.w3.org/2000/svg" xmlns:xlink="http://www.w3.org/1999/xlink" x="0px" y="0px"
	 viewBox="0 0 16 16" style="enable-background:new 0 0 16 16;" xml:space="preserve">
<path d="M1.675,4.638C1.157,4.636,0.736,5.054,0.734,5.571c0,0.003,0,0.005,0,0.008v4.444c-0.002,0.518,0.416,0.939,0.933,0.941
	c0.003,0,0.005,0,0.008,0h2l4.113,3.172c0.486,0.365,1.176,0.266,1.54-0.22c0.141-0.188,0.218-0.416,0.22-0.651V2.355
	C9.543,1.748,9.047,1.259,8.439,1.264c-0.235,0.002-0.463,0.079-0.651,0.22L3.675,4.638H1.675z"/>
<path d="M15.472,7.317h-3.75c-0.276,0-0.5,0.224-0.5,0.5c0,0.276,0.224,0.5,0.5,0.5h3.75c0.276,0,0.5-0.224,0.5-0.5
	C15.972,7.541,15.748,7.317,15.472,7.317z"/>
</svg>
