<?xml version="1.0" encoding="utf-8"?>
<!-- Generator: Adobe Illustrator 26.0.3, SVG Export Plug-In . SVG Version: 6.00 Build 0)  -->
<svg version="1.1" id="Ebene_1" xmlns="http://www.w3.org/2000/svg" xmlns:xlink="http://www.w3.org/1999/xlink" x="0px" y="0px"
	 viewBox="0 0 100 100" style="enable-background:new 0 0 100 100;" xml:space="preserve">
<style type="text/css">
	.st0{fill:#0AAECC;}
</style>
<path class="st0" d="M43.908,23.431v47.656h12.185V23.431c0-0.29-0.097-0.559-0.257-0.757l-0.027-0.03
	c-0.175-0.202-0.418-0.327-0.685-0.327H44.877c-0.267,0-0.509,0.127-0.685,0.327C44.017,22.846,43.908,23.125,43.908,23.431
	 M42.604,71.087v-20.08c-0.024-0.256-0.127-0.488-0.278-0.662c-0.174-0.201-0.42-0.326-0.691-0.326H31.389
	c-0.269,0-0.514,0.126-0.692,0.33l-0.026,0.029c-0.159,0.199-0.257,0.464-0.257,0.754v19.955H42.604z M57.396,71.088h12.188v-30.15
	c0-0.307-0.11-0.587-0.286-0.789l0.001-0.002l-0.001-0.002c-0.175-0.201-0.417-0.326-0.685-0.326H58.366
	c-0.266,0-0.511,0.127-0.685,0.33l-0.003-0.002l-0.001,0.002c-0.158,0.181-0.262,0.427-0.28,0.703V71.088z M56.76,72.585
	l-0.016,0.002H43.282l-0.026,0.001H29.769l-0.04-0.003h-4.48v5.099h49.503v-5.099H56.76z M57.396,38.578
	c0.294-0.161,0.623-0.25,0.969-0.25h10.248c0.622,0,1.189,0.294,1.601,0.767l0.001-0.002c0.411,0.473,0.666,1.126,0.666,1.845v30.15
	h4.521c0.359,0,0.651,0.336,0.651,0.749v6.596c0,0.414-0.292,0.749-0.651,0.749H24.598c-0.358,0-0.651-0.335-0.651-0.749v-6.596
	c0-0.413,0.293-0.749,0.651-0.749h4.526V51.132c0-0.698,0.239-1.333,0.629-1.802l0.037-0.048c0.41-0.472,0.977-0.764,1.599-0.764
	h10.247c0.345,0,0.674,0.092,0.969,0.254V23.431c0-0.72,0.255-1.373,0.666-1.847c0.412-0.473,0.981-0.766,1.606-0.766h10.247
	c0.626,0,1.195,0.293,1.607,0.766l0.038,0.05c0.387,0.469,0.628,1.103,0.628,1.797V38.578z"/>
</svg>
