<?xml version="1.0" encoding="utf-8"?>
<!-- Generator: Adobe Illustrator 25.4.1, SVG Export Plug-In . SVG Version: 6.00 Build 0)  -->
<svg version="1.1" id="Ebene_1" xmlns="http://www.w3.org/2000/svg" xmlns:xlink="http://www.w3.org/1999/xlink" x="0px" y="0px"
	 viewBox="0 0 29 26" style="enable-background:new 0 0 29 26;" xml:space="preserve">
<style type="text/css">
	.st0{fill:#537DF1;}
</style>
<g>
	<path class="st0" d="M17.491,12.012L6.043,11.927c-0.179,0.01-0.349,0.081-0.482,0.2l-2.834,2.265
		c-0.277,0.294-0.277,0.753,0,1.048l2.834,2.3c0.136,0.11,0.307,0.17,0.482,0.17h4.741l-0.027,6.331
		C10.76,24.661,11.102,25,11.522,25h2.834c0.406-0.028,0.724-0.359,0.737-0.765l0.027-6.246h2.371c0.422,0,0.765-0.343,0.765-0.765
		v-4.447C18.256,12.354,17.913,12.012,17.491,12.012z"/>
	<path class="st0" d="M23.529,4.4c-0.133-0.117-0.306-0.178-0.482-0.17h-7.954V1.737C15.078,1.326,14.739,1,14.328,1h-2.834h-0.057
		c-0.385,0.03-0.681,0.351-0.68,0.737V4H9.016C8.608,3.985,8.267,4.302,8.25,4.708c0,0.01,0,0.019,0,0.029V9.3
		c0,0.407,0.33,0.737,0.737,0.737h13.974c0.177,0.008,0.35-0.053,0.482-0.17L26.276,7.6c0.239-0.256,0.274-0.641,0.085-0.935
		L23.529,4.4z"/>
</g>
</svg>
