<?xml version="1.0" encoding="utf-8"?>
<!-- Generator: Adobe Illustrator 25.4.1, SVG Export Plug-In . SVG Version: 6.00 Build 0)  -->
<svg version="1.1" id="Ebene_1" xmlns="http://www.w3.org/2000/svg" xmlns:xlink="http://www.w3.org/1999/xlink" x="0px" y="0px"
	 viewBox="0 0 29 26" style="enable-background:new 0 0 29 26;" xml:space="preserve">
<style type="text/css">
	.st0{fill:#537DF1;}
</style>
<g>
	<path class="st0" d="M27.928,15.986c0.246-0.048,0.465-0.19,0.611-0.393c0.314-0.443,0.211-1.055-0.23-1.37
		C27.758,13.88,12.23,4.698,11.747,4.428c-0.857-0.478-1.57-0.071-1.429,0.754c0.098,0.577,3.234,18.399,3.446,19.162
		c0.162,0.417,0.581,0.676,1.025,0.633c0.274,0.021,0.542-0.086,0.728-0.287c0.254-0.356,2.572-4.691,3.577-6.575
		c0.291-0.545,0.82-0.918,1.431-1.008C22.626,16.797,27.449,16.083,27.928,15.986z"/>
	<path class="st0" d="M9.372,9.12C9.29,8.663,8.939,8.299,8.481,8.221C5.827,7.766,4.002,6.829,4.002,5.744
		c0-1.532,3.642-2.772,8.112-2.772s8.113,1.242,8.113,2.772c0,0.245-0.094,0.483-0.27,0.71c-0.417,0.537-0.34,1.3,0.245,1.645
		c0.252,0.149,0.505,0.298,0.758,0.449c0.361,0.214,0.813,0.2,1.17-0.021c1.231-0.766,1.949-1.68,1.949-2.668
		c0-2.692-5.367-4.879-11.966-4.879S0.147,3.167,0.147,5.859c0,2.122,3.327,3.925,7.962,4.598c0.756,0.11,1.401-0.564,1.267-1.316
		C9.374,9.135,9.373,9.128,9.372,9.12z"/>
</g>
</svg>
