<?xml version="1.0" encoding="utf-8"?>
<!-- Generator: Adobe Illustrator 25.4.1, SVG Export Plug-In . SVG Version: 6.00 Build 0)  -->
<svg version="1.1" id="Ebene_1" xmlns="http://www.w3.org/2000/svg" xmlns:xlink="http://www.w3.org/1999/xlink" x="0px" y="0px"
	 viewBox="0 0 35 35" style="enable-background:new 0 0 35 35;" xml:space="preserve">
<style type="text/css">
	.st0{fill:#FFFFFF;}
</style>
<path class="st0" d="M17.5,0C7.8,0,0,7.8,0,17.5S7.8,35,17.5,35S35,27.2,35,17.5S27.2,0,17.5,0z M25.6,12.4c-0.3,0.3-0.5,0.7-0.9,1
	C24,14.1,24,14.2,24,14.7c-0.1,1.3-0.4,2.5-0.8,3.7c-0.9,2-2.3,3.6-4.1,4.8c-2.4,1.4-5.3,1.7-8,0.9c-0.8-0.3-1.6-0.6-2.4-1.1
	c0.3-0.1,0.7-0.1,1-0.1c1.2,0,2.3-0.3,3.3-0.9l0.7-0.4l-0.8-0.3c-1-0.3-1.9-1.1-2.3-2c-0.1-0.3,0-0.3,0.6-0.3h0.7l-0.6-0.3
	c-0.7-0.3-1.3-0.9-1.7-1.6c-0.3-0.5-0.4-1.1-0.4-1.7c0.2,0,0.4,0.1,0.6,0.1c0.8,0.3,1,0.2,0.5-0.3c-0.9-1-1.2-2.4-0.8-3.7l0.2-0.6
	l0.8,0.8c1.6,1.6,3.6,2.6,5.8,2.9l0.6,0.1v-0.6c-0.1-1.6,0.9-3,2.4-3.6c0.7-0.2,1.4-0.2,2.1,0c0.4,0.1,0.7,0.3,1,0.5l0.6,0.4
	l0.7-0.2c0.4-0.1,0.7-0.3,1.1-0.4c0.2-0.1,0.4-0.2,0.4-0.1c-0.2,0.5-0.5,0.9-0.8,1.3c-0.5,0.6-0.4,0.6,0.7,0.2
	C25.8,12.1,25.8,12.1,25.6,12.4z"/>
</svg>
