<?xml version="1.0" encoding="utf-8"?>
<!-- Generator: Adobe Illustrator 26.0.3, SVG Export Plug-In . SVG Version: 6.00 Build 0)  -->
<svg version="1.1" id="Ebene_1" xmlns="http://www.w3.org/2000/svg" xmlns:xlink="http://www.w3.org/1999/xlink" x="0px" y="0px"
	 viewBox="0 0 314.6 47" style="enable-background:new 0 0 314.6 47;" xml:space="preserve">
<style type="text/css">
	.st0{fill:#FFFFFF;}
</style>
<g>
	<path class="st0" d="M0,0h21.3v2.1H16l11.5,28.2l9.3-26.7c0-0.1,0-0.3,0-0.5c0-0.2-0.2-0.3-0.4-0.5c-0.3-0.1-0.7-0.3-1.2-0.4
		c-0.5-0.1-1.3-0.2-2.3-0.2h-2.3V0h14.4v2.1H42c-0.4,0-0.8,0.1-1.1,0.2c-0.3,0.1-0.7,0.4-1,1c-0.3,0.5-0.7,1.3-1.2,2.4
		c-0.5,1.1-1,2.5-1.6,4.4l-12.8,37h-2.1L3.9,2.1H0V0z"/>
	<path class="st0" d="M47.5,45.9v-2.1h5.1V2.1h-5.1V0h22.4v2.1h-5.8v41.8h5.8v2.1L47.5,45.9L47.5,45.9z"/>
	<path class="st0" d="M83.4,18.3c0.7,0,1.5,0.1,2.2,0.4c0.7,0.3,1.3,0.7,1.8,1.2c0.5,0.5,0.9,1.1,1.2,1.8c0.3,0.7,0.5,1.4,0.5,2.2
		c0,1.6-0.6,2.9-1.7,4c-1.1,1.1-2.5,1.6-4,1.6c-1.6,0-2.9-0.6-4-1.7c-1.1-1.1-1.6-2.4-1.6-3.9c0-0.7,0.1-1.4,0.4-2.1
		c0.3-0.7,0.7-1.3,1.2-1.8c0.5-0.5,1.1-0.9,1.8-1.2C81.9,18.4,82.6,18.3,83.4,18.3z M83.4,35.6c0.7,0,1.5,0.1,2.2,0.4
		c0.7,0.3,1.3,0.7,1.8,1.2c0.5,0.5,0.9,1.1,1.2,1.8c0.3,0.7,0.5,1.4,0.5,2.2c0,1.6-0.6,2.9-1.7,4s-2.5,1.6-4,1.6
		c-1.6,0-2.9-0.6-4-1.7c-1.1-1.1-1.6-2.4-1.6-3.9c0-0.7,0.1-1.4,0.4-2.1c0.3-0.7,0.7-1.3,1.2-1.8c0.5-0.5,1.1-0.9,1.8-1.2
		C81.9,35.8,82.6,35.6,83.4,35.6z"/>
	<path class="st0" d="M144.9,43.8h5.7v2.1h-22.9v-2.1h6.1V2.4h-0.1l-13.4,43.5h-2.5L104.7,2.3h-0.1v37.4c0,1.1,0.1,2,0.4,2.6
		c0.3,0.6,0.7,1,1.3,1.2c0.5,0.2,1.2,0.3,2,0.3c0.8,0,1.7,0,2.7,0v2.1H96.4v-2.1c1,0,1.8,0,2.5,0c0.8,0,1.4-0.1,2-0.3
		s0.9-0.6,1.2-1.2c0.3-0.6,0.4-1.4,0.4-2.6V2.1h-6.1V0h19.3l8,27.7L132,0h18.6v2.1h-5.7V43.8z"/>
	<path class="st0" d="M153.9,0h22.7v2.1h-5.8v33.2c0,1.6,0.1,3,0.4,4.2c0.3,1.2,0.7,2.2,1.4,3c0.7,0.8,1.6,1.4,2.9,1.8
		c1.2,0.4,2.8,0.6,4.7,0.6c1.4,0,2.6-0.1,3.6-0.4c1.1-0.3,2-0.6,2.8-1.1c0.8-0.4,1.5-0.9,2.1-1.5c0.6-0.5,1-1.1,1.4-1.6
		c0.4-0.4,0.7-1,0.9-1.9c0.2-0.8,0.4-1.8,0.4-3c0.1-1.1,0.1-2.3,0.2-3.7c0-1.3,0-2.7,0-4.1V4.6c0-0.7-0.3-1.3-0.8-1.8
		c-0.5-0.5-1.3-0.8-2.3-0.8h-3.1V0H200v2.1h-4.1c-0.8,0-1.3,0.3-1.6,0.8c-0.3,0.5-0.5,1.1-0.5,1.8v28.2c0,1.7-0.1,3.5-0.4,5.2
		c-0.3,1.7-1,3.2-2.2,4.5c-1.3,1.4-3,2.5-5.2,3.3s-5.2,1.1-9.1,1.1c-2.8,0-5.3-0.3-7.5-0.8c-2.2-0.5-4-1.4-5.4-2.6
		c-1.5-1.2-2.6-2.7-3.3-4.6c-0.8-1.9-1.1-4.2-1.1-7V2.1h-5.4L153.9,0L153.9,0z"/>
</g>
<g>
	<polygon class="st0" points="287.4,26.7 292.4,26.7 289.9,18.6 	"/>
	<path class="st0" d="M241,21c0.5-0.4,0.7-1,0.7-1.8c0-0.9-0.2-1.5-0.7-1.9c-0.5-0.4-1.2-0.7-2.1-0.7h-3.8v5.1h3.8
		C239.8,21.7,240.5,21.5,241,21z"/>
	<path class="st0" d="M239.1,25.1h-4v5.5h4c1,0,1.7-0.2,2.1-0.7c0.5-0.5,0.7-1.2,0.7-2.1c0-0.8-0.2-1.5-0.7-1.9
		C240.8,25.4,240.1,25.1,239.1,25.1z"/>
	<path class="st0" d="M305.2,0.2h-81.8c-5.2,0-9.3,4.2-9.3,9.3v28c0,5.2,4.2,9.3,9.3,9.3h81.8c5.2,0,9.3-4.2,9.3-9.3v-28
		C314.6,4.3,310.4,0.2,305.2,0.2z M244.3,32.5c-1.1,1.1-2.7,1.6-4.7,1.6h-8.4v-21h8.1c2,0,3.6,0.5,4.8,1.5s1.7,2.5,1.7,4.3
		c0,0.9-0.2,1.8-0.7,2.6c-0.5,0.8-1.1,1.4-1.9,1.8c1,0.4,1.7,1,2.2,1.9c0.5,0.8,0.7,1.8,0.7,2.9C246,30,245.4,31.4,244.3,32.5z
		 M263.7,16.6h-9.3v5.2h8v3.5h-8v5.4h9.3v3.5h-13.3v-21h13.3V16.6z M275.7,34.1h-4V16.6h-5.3v-3.5H281v3.5h-5.3V34.1z M294.8,34.1
		l-1.3-4.1h-7.2l-1.3,4.1h-4.2l7.4-21h3.3l7.5,21H294.8z"/>
</g>
</svg>
