<?xml version="1.0" encoding="utf-8"?>
<!-- Generator: Adobe Illustrator 25.4.1, SVG Export Plug-In . SVG Version: 6.00 Build 0)  -->
<svg version="1.1" id="Ebene_1" xmlns="http://www.w3.org/2000/svg" xmlns:xlink="http://www.w3.org/1999/xlink" x="0px" y="0px"
	 viewBox="0 0 16 16" style="enable-background:new 0 0 16 16;" xml:space="preserve">
<style type="text/css">
	.st0{fill:#FFFF00;}
</style>
<path class="st0" d="M14.44,2.141l-13.198,0c-0.318,0-0.636,0.121-0.879,0.364c-0.485,0.485-0.485,1.272,0,1.757L7.084,14.58
	c0.281,0.303,0.701,0.455,1.122,0.384c0.282-0.047,0.535-0.189,0.719-0.395l6.711-10.308C15.879,4.019,16,3.702,16,3.384
	s-0.121-0.636-0.364-0.879c-0.242-0.242-0.56-0.364-0.878-0.364"/>
<g>
	<path d="M8.792,5.808L8.318,9.839H7.445L6.958,5.808V3.616h1.834V5.808z M8.746,10.53v1.693H7V10.53H8.746z"/>
</g>
</svg>
