<?xml version="1.0" encoding="utf-8"?>
<!-- Generator: Adobe Illustrator 25.4.1, SVG Export Plug-In . SVG Version: 6.00 Build 0)  -->
<svg version="1.1" id="Ebene_1" xmlns="http://www.w3.org/2000/svg" xmlns:xlink="http://www.w3.org/1999/xlink" x="0px" y="0px"
	 viewBox="0 0 35 35" style="enable-background:new 0 0 35 35;" xml:space="preserve">
<style type="text/css">
	.st0{fill:#FFFFFF;}
</style>
<g>
	<polygon class="st0" points="15.8,20.4 21,17.8 15.8,15.1 	"/>
	<path class="st0" d="M17.5,0C7.8,0,0,7.8,0,17.5S7.8,35,17.5,35S35,27.1,35,17.5C35,7.8,27.2,0,17.5,0z M26.9,18.6
		c-0.1,0.9-0.1,1.9-0.2,3c-0.1,0.7-0.3,1.3-0.7,1.9c-0.5,0.5-1.2,0.8-1.9,0.8c-2.6,0.2-6.5,0.2-6.5,0.2s-4.9,0-6.3-0.2
		c-0.8,0-1.5-0.3-2.1-0.8c-0.4-0.6-0.7-1.2-0.7-1.9c-0.1-1-0.2-2.1-0.2-3.1v-1.4c0-1,0.1-2.1,0.2-3.1c0.1-0.7,0.3-1.3,0.7-1.9
		c0.5-0.5,1.2-0.8,1.9-0.8c2.6-0.2,6.5-0.2,6.5-0.2s3.9,0,6.5,0.2c0.7,0,1.4,0.3,1.9,0.8c0.4,0.6,0.7,1.2,0.7,1.9
		c0.1,1,0.2,2.1,0.2,3.1V18.6z"/>
</g>
</svg>
