<svg version="1.1" id="Ebene_1" xmlns="http://www.w3.org/2000/svg" xmlns:xlink="http://www.w3.org/1999/xlink" x="0px" y="0px" viewBox="0 0 18 22" style="enable-background:new 0 0 18 22;" xml:space="preserve">
                                <style type="text/css">
                                    .st0 {
                                        fill: #FFFFFF;
                                    }
                                </style>
                                <path class="st0" d="M12.3,3.4c0.7-0.9,1.1-1.9,1.2-3c0-0.1,0-0.3,0-0.4c-1.3,0.1-2.4,0.7-3.2,1.7c-0.7,0.8-1.2,1.9-1.2,3
									c0,0.1,0,0.3,0,0.4c0.1,0,0.2,0,0.3,0l0,0C10.5,4.9,11.6,4.3,12.3,3.4z" />
                                <path class="st0" d="M0,11.7c0.1,2.6,0.9,5.1,2.3,7.2c1.1,1.5,2.1,2.8,3.4,2.8c1.4,0,2-0.9,3.7-0.9s2.1,0.9,3.6,0.9s2.5-1.4,3.4-2.7
									c0.7-1,1.2-2,1.5-3.1c-1.8-0.7-2.9-2.5-3-4.4c0-1.7,0.9-3.3,2.4-4.2c-1-1.4-2.6-2.2-4.4-2.2c-1.7,0-3,1-3.9,1
									c-0.9,0-2.2-0.9-3.6-0.9C2.8,5.3,0,7.5,0,11.7z" />
                            </svg>