 <svg version="1.1" id="Ebene_1" xmlns="http://www.w3.org/2000/svg" xmlns:xlink="http://www.w3.org/1999/xlink" x="0px" y="0px" viewBox="0 0 18 22" style="enable-background:new 0 0 18 22;" xml:space="preserve">
    <style type="text/css">
        .st0 {
            fill: #FFFFFF;
        }
    </style>
    <path class="st0" d="M12.4,13.043v7H17c0.5,0,1-0.4,1-1v-16c0-0.5-0.4-1-1-1H1c-0.5,0-1,0.4-1,1l0,0v16c0,0.5,0.4,1,1,1h8.6v-7H7.3
        v-2.7h2.3v-2c-0.2-1.8,1.1-3.4,2.9-3.6c0.2,0,0.4,0,0.6,0c0.7,0,1.4,0,2.1,0.1v2.4h-1.4c-1.1,0-1.3,0.5-1.3,1.3v1.7h2.7l-0.4,2.7
        h-2.4V13.043z" />
</svg>