<svg version="1.1" id="Ebene_1" xmlns="http://www.w3.org/2000/svg" xmlns:xlink="http://www.w3.org/1999/xlink" x="0px" y="0px" viewBox="0 0 40 40" style="enable-background:new 0 0 40 40;" xml:space="preserve">
    <style type="text/css">
        .st0 {
            fill: #FFFFFF;
        }
    </style>
    <g id="Gruppe_1884" transform="translate(-1770.909 -198.375)">
        <path class="st0" d="M1790.909,225.345c-0.621,0-1.125-0.504-1.125-1.125V211.53c0-0.621,0.504-1.125,1.125-1.125
            s1.125,0.504,1.125,1.125v12.689C1792.034,224.841,1791.53,225.345,1790.909,225.345z"></path>
        <path class="st0" d="M1790.909,226.345c-0.288,0-0.576-0.109-0.795-0.329l-5-5c-0.439-0.439-0.439-1.152,0-1.592
            s1.151-0.439,1.591,0l5,5c0.439,0.439,0.439,1.152,0,1.592C1791.485,226.235,1791.197,226.345,1790.909,226.345z"></path>
        <path class="st0" d="M1790.909,226.345c-0.288,0-0.576-0.109-0.795-0.329c-0.439-0.439-0.439-1.152,0-1.592l5-5
            c0.439-0.439,1.151-0.439,1.591,0s0.439,1.152,0,1.592l-5,5C1791.485,226.235,1791.197,226.345,1790.909,226.345z"></path>
    </g>
</svg>