 <svg version="1.1" id="Ebene_1" xmlns="http://www.w3.org/2000/svg" xmlns:xlink="http://www.w3.org/1999/xlink" x="0px" y="0px" viewBox="0 0 18 22" style="enable-background:new 0 0 18 22;" xml:space="preserve">
    <style type="text/css">
        .st0 {
            fill: #FFFFFF;
        }
    </style>
    <path class="st0" d="M15.184,17.65c1.789-1.69,2.783-4.076,2.684-6.561c0-0.596-0.099-1.193-0.199-1.789H9.121v3.479h4.871
        c-0.199,1.093-0.895,2.088-1.789,2.684l0,0c-0.895,0.596-1.988,0.895-3.082,0.895c-2.286,0-4.374-1.491-5.07-3.678l0,0
        c-0.398-1.093-0.398-2.286,0-3.38l0,0l0,0c0.795-2.187,2.783-3.678,5.07-3.678c1.292,0,2.585,0.497,3.479,1.292l2.585-2.585
        c-1.69-1.491-3.877-2.386-6.064-2.286c-3.38,0-6.561,1.889-8.151,4.97c-1.292,2.485-1.292,5.467,0,8.052
        c1.591,3.082,4.771,4.97,8.151,4.97C11.307,19.936,13.494,19.141,15.184,17.65L15.184,17.65L15.184,17.65L15.184,17.65z" />
</svg>