<?xml version="1.0" encoding="utf-8"?>
<!-- Generator: Adobe Illustrator 27.0.0, SVG Export Plug-In . SVG Version: 6.00 Build 0)  -->
<svg version="1.1" xmlns="http://www.w3.org/2000/svg" xmlns:xlink="http://www.w3.org/1999/xlink" x="0px" y="0px"
	 viewBox="0 0 32 32" style="enable-background:new 0 0 32 32;" xml:space="preserve">
<style type="text/css">
	.st0{display:none;}
	.st1{display:inline;fill:#7C7C7C;stroke:#FFFFFF;stroke-width:1;stroke-miterlimit:10;}
	.st2{fill:#FFFFFF;}
</style>
<g id="Layer_2" class="st0">
	<rect x="-241.614" y="-148.595" class="st1" width="607.603" height="577.908"/>
</g>
<g id="Ebene_1">
	<g>
		<g>
			<path d="M10.637,21.483c-1.36,0-2.649-0.522-3.729-1.51C5.511,18.695,4.164,17.325,2.862,16
				c-0.553-0.562-1.106-1.125-1.665-1.683l-0.104-0.104l-0.06-0.215l-0.089-0.275l0.198-0.202c0.431-0.477,1.05-0.739,1.744-0.739
				c0.579,0,1.159,0.178,1.635,0.502c0.165,0.112,0.318,0.24,0.471,0.369c0.024,0.021,0.049,0.041,0.073,0.062
				c0.004-0.65,0.002-2.672,0.002-2.672l0-1.967C5.065,7.583,5.065,6.092,5.07,4.601c0.003-0.994,0.519-1.652,1.378-1.762
				c0.085-0.011,0.167-0.016,0.247-0.016c0.957,0,1.602,0.72,1.605,1.793c0.004,1.126,0.005,2.253,0.004,3.38
				c0.27-0.258,0.627-0.417,1.03-0.434c0,0,0.001,0,0.002,0c0.805,0,1.444,0.523,1.621,1.239c0.28-0.289,0.67-0.46,1.124-0.467l0,0
				c0.84,0,1.456,0.531,1.604,1.325c0.295-0.297,0.699-0.479,1.136-0.479c0.895,0.025,1.586,0.687,1.586,1.476l0.003,1.065
				c0.006,1.541,0.013,3.134-0.103,4.701c-0.164,2.21-1.419,3.864-3.534,4.655C12.055,21.347,11.337,21.483,10.637,21.483z"/>
			<path class="st2" d="M6.696,3.324c0.665,0,1.102,0.49,1.105,1.294c0.007,2.107,0.002,4.214,0.003,6.321
				c0,0.176-0.027,0.358,0.012,0.524c0.029,0.121,0.147,0.221,0.226,0.33c0.08-0.113,0.223-0.224,0.229-0.341
				c0.026-0.526,0.013-1.053,0.014-1.58C8.285,9.639,8.277,9.405,8.29,9.171C8.326,8.54,8.766,8.087,9.355,8.063
				c0.015-0.001,0.029-0.001,0.044-0.001c0.575,0,1.078,0.463,1.106,1.091c0.032,0.72-0.002,1.444,0.022,2.165
				c0.005,0.161,0.129,0.319,0.199,0.478c0.089-0.162,0.241-0.318,0.255-0.486c0.037-0.446,0.001-0.897,0.017-1.345
				c0.024-0.672,0.467-1.12,1.092-1.129c0.006,0,0.013,0,0.019,0c0.64,0,1.088,0.455,1.11,1.149c0.013,0.429-0.019,0.86,0.015,1.287
				c0.014,0.179,0.143,0.35,0.22,0.524c0.083-0.165,0.202-0.323,0.24-0.497c0.044-0.206-0.005-0.43,0.025-0.641
				c0.083-0.568,0.558-0.976,1.104-0.976c0.01,0,0.021,0,0.031,0c0.55,0.016,1.056,0.423,1.056,0.975
				c0,1.91,0.043,3.827-0.098,5.729c-0.152,2.044-1.289,3.505-3.211,4.224c-0.666,0.249-1.324,0.373-1.961,0.373
				c-1.232,0-2.39-0.462-3.391-1.379c-1.97-1.802-3.804-3.753-5.695-5.641c-0.024-0.024-0.026-0.071-0.038-0.107
				c0.364-0.403,0.866-0.575,1.373-0.575c0.483,0,0.972,0.156,1.354,0.416c0.272,0.186,0.51,0.421,0.777,0.617
				c0.115,0.084,0.261,0.124,0.393,0.184c0.052-0.138,0.147-0.275,0.149-0.413c0.013-1.014,0.008-2.029,0.008-3.044
				c0-2.146-0.004-4.292,0.003-6.438C5.572,3.85,5.911,3.412,6.511,3.336C6.574,3.328,6.636,3.324,6.696,3.324 M6.696,2.324
				c-0.1,0-0.204,0.006-0.31,0.02C5.269,2.485,4.574,3.35,4.57,4.6C4.565,6.125,4.565,7.65,4.566,9.174l0.001,1.867l0,0.702
				c0,0.327,0.001,0.654,0,0.981c-0.509-0.287-1.096-0.443-1.682-0.443c-0.837,0-1.588,0.321-2.115,0.904l-0.387,0.427l0.166,0.516
				c0.024,0.106,0.089,0.338,0.294,0.542c0.556,0.555,1.106,1.115,1.657,1.675c1.308,1.331,2.661,2.707,4.07,3.996
				c1.173,1.074,2.58,1.641,4.066,1.641c0.76,0,1.538-0.147,2.312-0.437c2.309-0.864,3.679-2.67,3.858-5.087
				c0.117-1.584,0.111-3.183,0.104-4.73l-0.003-1.073c0-1.057-0.91-1.943-2.028-1.975l-0.014,0l-0.045,0
				c-0.316,0-0.618,0.072-0.891,0.202c-0.359-0.641-1.023-1.048-1.822-1.048c-0.341,0.005-0.657,0.08-0.934,0.213
				c-0.375-0.595-1.031-0.986-1.775-0.986h-0.02L9.314,7.064c-0.177,0.007-0.348,0.035-0.51,0.082c0-0.844-0.001-1.688-0.004-2.532
				C8.796,3.266,7.93,2.324,6.696,2.324L6.696,2.324z"/>
		</g>
	</g>
</g>
</svg>
