<?xml version="1.0" encoding="utf-8"?>
<!-- Generator: Adobe Illustrator 26.0.3, SVG Export Plug-In . SVG Version: 6.00 Build 0)  -->
<svg version="1.1" id="Ebene_1" xmlns="http://www.w3.org/2000/svg" xmlns:xlink="http://www.w3.org/1999/xlink" x="0px" y="0px"
	 viewBox="0 0 512 512" style="enable-background:new 0 0 512 512;" xml:space="preserve">
<style type="text/css">
	.st0{fill:#FFFFFF;}
</style>
<g>
	<path class="st0" d="M329.9736,247.139v-25.7108l-82.7491,97.5466c2.5925,0.3156,5.1196,0.8488,7.7888,0.8893
		C295.7899,320.4739,329.3638,287.9156,329.9736,247.139z"/>
	<path class="st0" d="M395.2752,221.7833c-12.7427,0-23.0845,11.1173-23.0845,23.86c0,63.9896-52.0607,116.0502-116.0502,116.0502
		c-13.7864,0-26.9597-2.5429-39.238-6.9749l-31.1415,36.7097c14.6949,7.1068,30.5396,12.1994,47.2758,14.6025v0.0034v60.0388
		c0,12.7427,10.3418,23.0845,23.0845,23.0845s23.0845-10.3418,23.0845-23.0845v-60.0388h0.0192
		c78.5244-11.2841,139.1347-78.9302,139.1347-161.9419C418.3597,231.3496,408.0179,221.7833,395.2752,221.7833z"/>
	<path class="st0" d="M207.1175,300.8916l122.8561-144.8247l67.9549-80.1059c7.0741-8.3354,6.8047-20.0129,0.5692-28.4329
		c-1.037-1.3999-1.8531-2.9273-3.2383-4.1018c-9.7207-8.2238-24.2928-7.0516-32.5347,2.6691l-33.8456,39.8974
		c-5.1827-35.3132-35.0055-62.5828-71.6307-63.1419c-40.7766-0.6098-74.3505,31.9486-74.9603,72.7251V247.139
		c0.0541,3.5202,0.6436,6.8904,1.1734,10.2753l-32.1075,37.8493c-7.188-15.0489-11.2638-31.8516-11.2638-49.6204v-1.551
		c0-12.7427-10.3418-22.309-23.0845-22.309s-23.0845,11.1173-23.0845,23.86c0,32.085,9.5528,61.8513,25.7322,86.9895
		L74.1236,386.303c-8.2509,9.7207-7.0516,24.2928,2.6691,32.5347c4.3374,3.6791,9.6396,5.4825,14.9238,5.4825
		c6.5466,0,13.0481-2.7773,17.6109-8.1517l14.0637-16.5784l26.7805-31.5687l0,0l29.7551-35.0764l0,0L207.1175,300.8916z"/>
</g>
</svg>
