 <svg xmlns="http://www.w3.org/2000/svg" width="21.335" height="20.001" viewBox="0 0 21.335 20.001">
    <g id="Gruppe_1056" data-name="Gruppe 1056" transform="translate(0 0.001)">
        <path id="Pfad_1216" data-name="Pfad 1216" d="M11.57,12.668A5.121,5.121,0,0,0,6.236,18c0,5.619,6.16,11.347,10.667,14.668C21.412,29.349,27.571,23.62,27.571,18a5.121,5.121,0,0,0-5.334-5.334A7.31,7.31,0,0,0,16.9,15.335,7.309,7.309,0,0,0,11.57,12.668Z" transform="translate(-6.236 -12.669)" fill="#fff" />
    </g>
    <path d="M11.57,12.668A5.121,5.121,0,0,0,6.236,18c0,5.619,6.16,11.347,10.667,14.668C21.412,29.349,27.571,23.62,27.571,18a5.121,5.121,0,0,0-5.334-5.334A7.31,7.31,0,0,0,16.9,15.335,7.309,7.309,0,0,0,11.57,12.668Z" transform="translate(-6.236 -12.669)" fill="#fff" />
</svg>