 <svg version="1.1" id="Ebene_1" xmlns="http://www.w3.org/2000/svg" xmlns:xlink="http://www.w3.org/1999/xlink" x="0px" y="0px" viewBox="0 0 96 56" style="enable-background:new 0 0 96 56;" xml:space="preserve">
                    <style type="text/css">
                        .st0 {
                            fill: #FFFFFF;
                        }

                        .st1 {
                            opacity: 0.1;
                            fill: #FFFFFF;
                        }
                    </style>
                    <g>
                        <path class="st0" d="M24.284,18.01c-3.197-0.735-6.034,1.693-6.034,4.786c0,0.002,0,0.003,0,0.005c0,2.717,2.186,4.919,4.882,4.919
		v-0.005c3.072,0,5.481-2.858,4.751-6.078C27.482,19.861,26.049,18.416,24.284,18.01z" />
                        <path class="st0" d="M36.783,27.722v-0.005c3.072,0,5.481-2.858,4.751-6.078c-0.403-1.778-1.836-3.222-3.601-3.628
		c-3.197-0.735-6.033,1.693-6.033,4.786c0,0.002,0,0.003,0,0.005C31.9,25.52,34.086,27.722,36.783,27.722z" />
                        <path class="st0" d="M31.432,38.158c0,0.254-0.052,0.496-0.139,0.718h11.83c0.393,0,0.714-0.322,0.714-0.718v-2.032
		c0.002-1.902-0.73-3.689-2.062-5.036c-1.25-1.263-2.888-1.995-4.644-2.082l-0.349,0.002c-0.003,0-0.007,0-0.01,0
		c-1.884,0-3.655,0.737-4.988,2.077c-0.456,0.457-0.813,0.98-1.124,1.527c0.492,1.07,0.774,2.257,0.772,3.512V38.158L31.432,38.158z
		" />
                        <path class="st0" d="M23.133,29.01c-0.003,0-0.007,0-0.011,0c-1.883,0-3.654,0.737-4.988,2.077
		c-1.335,1.342-2.073,3.128-2.076,5.029v2.042c0,0.396,0.32,0.718,0.714,0.718h11.83h0.719h0.152c0.184,0,0.348-0.075,0.474-0.189
		c0.145-0.132,0.24-0.317,0.24-0.529v-2.032c0-0.606-0.098-1.185-0.24-1.747c-0.09-0.361-0.193-0.715-0.336-1.052
		c-0.106-0.25-0.24-0.484-0.374-0.718c-1.162-2.048-3.283-3.477-5.76-3.602L23.133,29.01z" />
                    </g>
                    <path class="st0" d="M80.305,27.554c-0.038-0.229-0.152-0.434-0.318-0.584l-5.41-5.45c-0.195-0.196-0.451-0.294-0.707-0.294
	c-0.256,0-0.513,0.099-0.708,0.295c-0.391,0.394-0.391,1.033,0,1.427l4.739,4.774l-4.739,4.775c-0.391,0.394-0.391,1.033,0,1.427
	c0.391,0.394,1.025,0.394,1.416,0l5.418-5.458C80.24,28.238,80.362,27.896,80.305,27.554z" />
                    <rect x="60.045" class="st1" width="0.3" height="56" />
                </svg>