<svg version="1.1" id="Ebene_1" xmlns="http://www.w3.org/2000/svg" xmlns:xlink="http://www.w3.org/1999/xlink" x="0px" y="0px" viewBox="0 0 29 26" style="enable-background:new 0 0 29 26;" xml:space="preserve">
                    <style type="text/css">
                        .st0 {
                            fill: #FFFFFF;
                        }
                    </style>
                    <g>
                        <path class="st0" d="M22,1H7C6.171,1,5.5,1.672,5.5,2.5v21C5.5,24.328,6.171,25,7,25h15c0.829,0,1.5-0.672,1.5-1.5v-21
								C23.5,1.672,22.828,1,22,1z M14.582,20.772c-1.073,0.019-1.958-0.836-1.977-1.909s0.835-1.958,1.909-1.977
								c1.082-0.008,1.966,0.861,1.977,1.943C16.491,19.889,15.641,20.753,14.582,20.772z M18.764,12.9
								c-0.392,0.358-0.829,0.663-1.3,0.908c-0.095,0.054-0.188,0.107-0.278,0.16c-0.783,0.313-1.266,1.104-1.186,1.943h-2.97
								c-0.156-1.907,0.917-3.702,2.669-4.469c0.325-0.147,0.625-0.343,0.89-0.582c0.344-0.367,0.423-0.909,0.2-1.36
								c-0.4-0.884-1.308-1.425-2.275-1.357V8.142c-1.294-0.048-2.39,0.943-2.473,2.235L9.075,9.988c0.345-2.736,2.682-4.781,5.439-4.76
								C15.6,5.222,16.666,5.52,17.592,6.09c0.869,0.529,1.554,1.312,1.963,2.243C20.27,9.872,19.954,11.692,18.764,12.9z" />
                    </g>
                </svg>