<?xml version="1.0" encoding="utf-8"?>
<!-- Generator: Adobe Illustrator 27.1.1, SVG Export Plug-In . SVG Version: 6.00 Build 0)  -->
<svg version="1.1" id="Ebene_1" xmlns="http://www.w3.org/2000/svg" xmlns:xlink="http://www.w3.org/1999/xlink" x="0px" y="0px"
	 viewBox="0 0 30 30" style="enable-background:new 0 0 30 30;" xml:space="preserve">
<style type="text/css">
	.st0{fill-rule:evenodd;clip-rule:evenodd;fill:#FFFFFF;}
</style>
<path class="st0" d="M20.365,9.635c-0.701-0.699-1.535-1.263-2.462-1.646c-0.89-0.369-1.871-0.573-2.903-0.573
	c-1.033,0-2.014,0.203-2.904,0.573c-0.927,0.383-1.761,0.947-2.462,1.646c-0.7,0.701-1.264,1.535-1.646,2.461
	c-0.369,0.891-0.573,1.873-0.573,2.905c0,1.033,0.203,2.014,0.573,2.904c0.382,0.922,0.945,1.757,1.648,2.459l0.038,0.042
	c0.692,0.682,1.513,1.232,2.421,1.607c0.891,0.369,1.871,0.572,2.905,0.572c1.032,0,2.014-0.203,2.904-0.572
	c0.927-0.383,1.761-0.946,2.46-1.646c0.701-0.701,1.265-1.537,1.648-2.463c0.369-0.89,0.573-1.871,0.573-2.904
	c0-1.032-0.203-2.013-0.573-2.904C21.629,11.17,21.065,10.336,20.365,9.635L20.365,9.635z M20.108,4.422
	c0.235,0.099,0.48,0.141,0.727,0.132c0.248-0.011,0.49-0.075,0.717-0.192l2.596-1.34c0.022-0.012,0.043-0.016,0.058-0.013
	c0.015,0.002,0.033,0.012,0.051,0.029l-0.001,0.002l2.705,2.704c0.018,0.02,0.03,0.037,0.031,0.048
	c0.002,0.016-0.002,0.037-0.013,0.059l-1.34,2.596c-0.118,0.227-0.181,0.468-0.191,0.717c-0.011,0.244,0.033,0.488,0.131,0.724
	l0.516,1.246c0.1,0.24,0.242,0.446,0.422,0.611c0.181,0.167,0.396,0.29,0.641,0.369l2.784,0.888c0.022,0.006,0.039,0.017,0.047,0.03
	v0.003C29.995,13.048,30,13.066,30,13.092v3.816c0,0.027-0.005,0.046-0.012,0.056c-0.012,0.016-0.029,0.028-0.048,0.034
	l-2.781,0.888c-0.248,0.078-0.464,0.202-0.644,0.368c-0.181,0.167-0.323,0.371-0.422,0.608l-0.516,1.249
	c-0.097,0.237-0.142,0.48-0.131,0.724c0.011,0.248,0.074,0.489,0.191,0.717l1.34,2.596c0.011,0.022,0.015,0.043,0.013,0.059
	c-0.002,0.013-0.013,0.03-0.031,0.048l-2.721,2.721c-0.012,0.008-0.022,0.014-0.033,0.016c-0.015,0.002-0.036-0.002-0.058-0.014
	l-2.596-1.34c-0.228-0.117-0.468-0.181-0.717-0.191c-0.244-0.011-0.488,0.033-0.724,0.131l-1.245,0.516
	c-0.24,0.099-0.445,0.241-0.611,0.422c-0.165,0.179-0.29,0.396-0.369,0.644l-0.888,2.778c-0.008,0.025-0.018,0.042-0.03,0.05
	C16.955,29.996,16.935,30,16.908,30h-3.818c-0.027,0-0.047-0.004-0.058-0.013c-0.012-0.009-0.023-0.026-0.031-0.05l-0.887-2.778
	c-0.079-0.249-0.205-0.465-0.369-0.644c-0.167-0.182-0.371-0.323-0.608-0.422L9.89,25.578c-0.237-0.098-0.48-0.142-0.724-0.131
	c-0.248,0.011-0.489,0.075-0.717,0.191l-2.596,1.34c-0.023,0.012-0.043,0.016-0.059,0.014c-0.013-0.002-0.03-0.013-0.048-0.032
	l-2.705-2.705c-0.019-0.018-0.03-0.035-0.032-0.048c-0.002-0.016,0.002-0.036,0.014-0.059l1.34-2.596
	c0.118-0.228,0.181-0.469,0.191-0.717c0.01-0.244-0.033-0.488-0.131-0.724l-0.516-1.245c-0.099-0.241-0.242-0.445-0.421-0.611
	c-0.179-0.165-0.396-0.29-0.644-0.369l-2.778-0.888c-0.022-0.006-0.039-0.019-0.05-0.033l-0.006-0.009
	C0.002,16.945,0,16.929,0,16.908v-3.816c0-0.026,0.004-0.045,0.013-0.056c0.011-0.014,0.028-0.027,0.05-0.034l2.778-0.888
	c0.249-0.079,0.465-0.203,0.644-0.368c0.18-0.166,0.322-0.371,0.421-0.611L4.422,9.89c0.099-0.237,0.141-0.481,0.131-0.724
	C4.543,8.917,4.479,8.676,4.362,8.448l-1.34-2.596C3.011,5.831,3.006,5.81,3.009,5.794c0.002-0.012,0.013-0.029,0.032-0.048
	l2.705-2.704c0.018-0.02,0.035-0.03,0.048-0.031C5.81,3.007,5.83,3.011,5.853,3.023l2.596,1.34c0.228,0.117,0.468,0.181,0.717,0.192
	C9.409,4.564,9.653,4.521,9.89,4.422l1.249-0.516l0.05-0.024c0.217-0.097,0.405-0.232,0.557-0.398
	c0.166-0.18,0.291-0.395,0.369-0.641l0.887-2.781c0.008-0.025,0.019-0.042,0.031-0.051C13.043,0.005,13.064,0,13.092,0h3.816
	c0.028,0,0.048,0.005,0.059,0.012c0.012,0.009,0.022,0.026,0.03,0.051l0.889,2.777c0.079,0.249,0.203,0.465,0.368,0.644
	c0.167,0.182,0.371,0.323,0.608,0.422L20.108,4.422L20.108,4.422z M18.513,6.504c1.127,0.466,2.14,1.149,2.985,1.994l0.003,0.003
	c0.845,0.845,1.528,1.857,1.994,2.984c0.45,1.087,0.699,2.274,0.699,3.514c0,1.24-0.249,2.428-0.699,3.514
	c-0.467,1.127-1.149,2.14-1.994,2.985c-0.846,0.847-1.86,1.531-2.987,1.997c-1.087,0.45-2.274,0.698-3.514,0.698
	c-1.241,0-2.428-0.248-3.515-0.698c-1.107-0.459-2.105-1.126-2.941-1.951l-0.046-0.043c-0.844-0.844-1.527-1.857-1.994-2.987
	c-0.45-1.086-0.699-2.273-0.699-3.514c0-1.24,0.249-2.428,0.699-3.515c0.467-1.127,1.149-2.139,1.994-2.984l0.003-0.003
	c0.845-0.845,1.859-1.528,2.985-1.994c1.086-0.449,2.274-0.699,3.514-0.699C16.24,5.806,17.427,6.054,18.513,6.504z"/>
</svg>
