<svg xmlns="http://www.w3.org/2000/svg" width="30.655" height="19.994" viewBox="0 0 30.655 19.994">
    <g id="Gruppe_1089" data-name="Gruppe 1089" transform="translate(0 -0.001)">
        <path id="Vereinigungsmenge_3" data-name="Vereinigungsmenge 3" d="M23.732,16.495a3.462,3.462,0,1,1,3.46,3.5A3.482,3.482,0,0,1,23.732,16.495Zm-11.866,0a3.462,3.462,0,1,1,3.463,3.5A3.481,3.481,0,0,1,11.866,16.495ZM0,16.495A3.481,3.481,0,0,1,3.463,13a3.5,3.5,0,0,1,0,7A3.481,3.481,0,0,1,0,16.495Zm23.732-13a3.462,3.462,0,1,1,6.923,0,3.462,3.462,0,1,1-6.923,0Zm-11.866,0a3.462,3.462,0,1,1,6.923,0,3.462,3.462,0,1,1-6.923,0ZM0,3.5a3.462,3.462,0,1,1,6.923,0A3.48,3.48,0,0,1,3.463,7,3.481,3.481,0,0,1,0,3.5Z" transform="translate(0 0.001)" fill="#fff" />
    </g>
</svg>