<?xml version="1.0" encoding="utf-8"?>
<!-- Generator: Adobe Illustrator 25.4.1, SVG Export Plug-In . SVG Version: 6.00 Build 0)  -->
<svg version="1.1" id="Ebene_1" xmlns="http://www.w3.org/2000/svg" xmlns:xlink="http://www.w3.org/1999/xlink" x="0px" y="0px"
	 viewBox="0 0 37 26" style="enable-background:new 0 0 37 26;" xml:space="preserve">
<style type="text/css">
	.st0{fill:#FFFFFF;}
</style>
<g>
	<path class="st0" d="M8,14H3c-1.656,0.002-2.997,1.344-3,3v5c0.003,1.656,1.345,2.996,3,3h5c1.656-0.002,2.997-1.344,3-3v-5
		C10.997,15.343,9.656,14.002,8,14z M6.856,22l-0.37-1.1H4.563H4.56L4.19,22H3.023l1.986-5.332h1.019l2,5.332H6.856z"/>
	<polygon class="st0" points="4.858,20.007 6.19,20.007 6.189,20.005 5.518,18.015 	"/>
	<path class="st0" d="M21,14h-5c-1.656,0.002-2.997,1.344-3,3v5c0.003,1.656,1.345,2.996,3,3h5c1.656-0.002,2.997-1.344,3-3v-5
		C23.997,15.343,22.656,14.002,21,14z M17.995,18.543c0.234,0.141,0.487,0.248,0.751,0.318c0.492,0.119,0.948,0.354,1.332,0.684
		c0.274,0.264,0.425,0.631,0.416,1.012c0.018,0.414-0.175,0.811-0.512,1.053c-0.403,0.275-0.885,0.41-1.372,0.387
		c-0.374,0.006-0.745-0.07-1.087-0.221c-0.303-0.123-0.563-0.332-0.751-0.6c-0.178-0.26-0.27-0.568-0.262-0.883l1.07-0.004
		c0,0.578,0.335,0.859,1.024,0.859c0.211,0.012,0.421-0.041,0.6-0.152c0.14-0.1,0.219-0.262,0.21-0.434
		c0.011-0.182-0.067-0.355-0.21-0.467c-0.24-0.152-0.5-0.268-0.774-0.342c-0.301-0.092-0.594-0.211-0.876-0.352
		c-0.521-0.219-0.866-0.723-0.882-1.287c-0.006-0.27,0.076-0.531,0.233-0.75c0.174-0.234,0.411-0.412,0.683-0.518
		c0.318-0.127,0.658-0.189,1-0.184c0.34-0.004,0.678,0.062,0.99,0.199c0.274,0.121,0.507,0.32,0.671,0.57
		c0.165,0.248,0.25,0.539,0.245,0.836h-1.07c0.012-0.211-0.072-0.414-0.228-0.557c-0.177-0.141-0.4-0.211-0.626-0.199
		c-0.216-0.014-0.431,0.047-0.609,0.17c-0.142,0.098-0.225,0.26-0.222,0.432C17.742,18.293,17.84,18.457,17.995,18.543z"/>
	<path class="st0" d="M34,14h-5c-1.656,0.002-2.997,1.344-3,3v5c0.003,1.656,1.345,2.996,3,3h5c1.656-0.002,2.997-1.344,3-3v-5
		C36.997,15.343,35.656,14.002,34,14z M33.574,19.455c0.01,0.459-0.096,0.912-0.307,1.32c-0.194,0.379-0.495,0.691-0.865,0.9
		c-0.383,0.213-0.814,0.324-1.252,0.324H29.5v-5.332l1.638,0.002c0.439-0.008,0.873,0.102,1.258,0.314
		c0.368,0.211,0.668,0.523,0.865,0.9c0.212,0.41,0.319,0.865,0.313,1.326V19.455L33.574,19.455z"/>
	<path class="st0" d="M31.139,17.556h-0.541v3.557h0.529l0.003,0.002c0.375,0.021,0.738-0.133,0.982-0.418
		c0.247-0.352,0.369-0.775,0.347-1.205v-0.285c0.029-0.436-0.088-0.869-0.335-1.229C31.881,17.689,31.515,17.533,31.139,17.556z"/>
	<path class="st0" d="M6,4v5c0.003,1.656,1.345,2.996,3,3h6c1.657,0,3-1.344,3-3V4c0-1.656-1.343-3-3-3H9
		C7.344,1.002,6.003,2.343,6,4z M10.207,4.021l0.723,3.785l0.876-3.785h0.933l0.871,3.795l0.717-3.795h1.1l-1.184,5.332h-1.1
		l-0.87-3.564l-0.875,3.564h-1.1L9.114,4.021H10.207z"/>
</g>
</svg>
