<svg version="1.1" id="Ebene_1" xmlns="http://www.w3.org/2000/svg" xmlns:xlink="http://www.w3.org/1999/xlink" x="0px" y="0px" viewBox="0 0 29 26" style="enable-background:new 0 0 29 26;" xml:space="preserve">
    <g>
        <path class="st0" d="M18.273,12.579V4.372c-0.033-2.161-1.777-3.905-3.938-3.938c-2.208-0.033-4.026,1.73-4.059,3.938v8.207
                c0.033,2.161,1.777,3.905,3.938,3.938C16.422,16.55,18.24,14.787,18.273,12.579z" />
        <path class="st0" d="M13.024,21.183v3.251c0,0.69,0.56,1.25,1.25,1.25s1.25-0.56,1.25-1.25v-3.251c-0.409,0.059-0.824,0.1-1.25,0.1
                C13.849,21.282,13.434,21.241,13.024,21.183z" />
        <path class="st0" d="M23.059,12.414c0-0.69-0.56-1.208-1.25-1.208s-1.25,0.602-1.25,1.292c0,3.465-2.819,6.284-6.284,6.284
                s-6.284-2.819-6.284-6.284v-0.084c0-0.69-0.56-1.208-1.25-1.208s-1.25,0.602-1.25,1.292c0,4.418,3.282,8.075,7.534,8.685v-0.882
                c0-0.69,0.56-1.25,1.25-1.25s1.25,0.56,1.25,1.25v0.882C19.777,20.572,23.059,16.909,23.059,12.414z" />
        <path class="st0" d="M14.274,19.05c-0.69,0-1.25,0.56-1.25,1.25v0.882c0.41,0.059,0.825,0.099,1.25,0.099
                c0.426,0,0.841-0.041,1.25-0.1v-0.882C15.524,19.61,14.965,19.05,14.274,19.05z" />
    </g>
</svg>