 <svg version="1.1" id="Ebene_1" xmlns="http://www.w3.org/2000/svg" xmlns:xlink="http://www.w3.org/1999/xlink" x="0px" y="0px" viewBox="0 0 29 26" style="enable-background:new 0 0 29 26;" xml:space="preserve">
    <g>
        <path class="st0" d="M3.797,9.095c0,0.002,0,0.004,0,0.005c0,2.697,2.186,4.883,4.883,4.883v-0.005
                c3.072,0,5.481-2.837,4.751-6.033C13.028,6.18,11.595,4.747,9.83,4.344C6.633,3.614,3.797,6.023,3.797,9.095z" />
        <path class="st0" d="M26.941,24.719V23.27c0.004-2.62-2.059-4.768-4.646-4.9h-0.247c-0.002,0-0.004,0-0.007,0
                c-1.306,0-2.534,0.508-3.459,1.43c-0.927,0.924-1.438,2.154-1.44,3.462v1.456c0,0.185,0.151,0.337,0.337,0.337h9.124
                C26.789,25.056,26.941,24.904,26.941,24.719z" />
        <path class="st0" d="M1.604,24.342c0,0.393,0.321,0.714,0.714,0.714h12.701c0.394,0,0.714-0.32,0.714-0.714v-2.017
                c0.002-1.888-0.729-3.663-2.062-4.999c-1.25-1.254-2.888-1.98-4.645-2.067l-0.348,0.002c-0.003,0-0.007,0-0.01,0
                c-1.883,0-3.654,0.732-4.988,2.062c-1.336,1.332-2.073,3.105-2.076,4.992C1.604,22.315,1.604,24.342,1.604,24.342z" />
        <path class="st0" d="M22.876,10.445c-2.296-0.524-4.334,1.207-4.334,3.413c0,0.001,0,0.003,0,0.004c0,1.937,1.57,3.507,3.507,3.507
                v-0.004c2.207,0,3.938-2.038,3.413-4.334C25.173,11.764,24.143,10.735,22.876,10.445z" />
        <path class="st0" d="M26.379,7.772c0-0.001,0-0.003,0-0.004V1.724c0-0.384-0.312-0.696-0.695-0.696c-0.001,0-0.002,0-0.003,0
                h-8.882c-0.384,0-0.695,0.311-0.695,0.696h-0.005v7.997c0,0.257,0.209,0.465,0.467,0.465c0.11,0,0.216-0.04,0.3-0.111l1.917-1.612
                h6.897C26.064,8.465,26.377,8.156,26.379,7.772z M19.151,5.355c-0.386,0-0.699-0.313-0.699-0.699s0.313-0.699,0.699-0.699
                S19.85,4.27,19.85,4.656S19.537,5.355,19.151,5.355z M21.534,5.355H21.53c-0.386,0-0.699-0.313-0.699-0.699
                s0.313-0.699,0.699-0.699s0.699,0.313,0.699,0.699C22.229,5.04,21.919,5.353,21.534,5.355z M23.906,5.355
                c-0.386,0-0.699-0.313-0.699-0.699s0.313-0.699,0.699-0.699s0.699,0.313,0.699,0.699S24.293,5.355,23.906,5.355z" />
    </g>
</svg>