<?xml version="1.0" encoding="utf-8"?>
<!-- Generator: Adobe Illustrator 25.4.1, SVG Export Plug-In . SVG Version: 6.00 Build 0)  -->
<svg version="1.1" id="Ebene_1" xmlns="http://www.w3.org/2000/svg" xmlns:xlink="http://www.w3.org/1999/xlink" x="0px" y="0px"
	 viewBox="0 0 35 35" style="enable-background:new 0 0 35 35;" xml:space="preserve">
<style type="text/css">
	.st0{fill:#FFFFFF;}
</style>
<path class="st0" d="M17.5,35C27.165,35,35,27.165,35,17.5S27.165,0,17.5,0S0,7.835,0,17.5S7.835,35,17.5,35z M9.817,15.095
	l6.755-6.756C16.754,8.138,17,7.998,17.276,7.947c0.428-0.079,0.859,0.074,1.145,0.384l6.764,6.764c0.488,0.488,0.488,1.279,0,1.768
	c-0.244,0.244-0.564,0.366-0.884,0.366s-0.64-0.122-0.884-0.366l-4.666-4.666v14.419c0,0.69-0.56,1.25-1.25,1.25
	s-1.25-0.56-1.25-1.25V12.197l-4.667,4.666c-0.488,0.488-1.28,0.488-1.768,0C9.328,16.374,9.328,15.583,9.817,15.095z"/>
</svg>
