<?xml version="1.0" encoding="utf-8"?>
<!-- Generator: Adobe Illustrator 25.4.1, SVG Export Plug-In . SVG Version: 6.00 Build 0)  -->
<svg version="1.1" id="Ebene_1" xmlns="http://www.w3.org/2000/svg" xmlns:xlink="http://www.w3.org/1999/xlink" x="0px" y="0px"
	 viewBox="0 0 200 47" style="enable-background:new 0 0 200 47;" xml:space="preserve">
<style type="text/css">
	.st0{fill:#FFFFFF;}
</style>
<g>
	<path class="st0" d="M0,0h21.291v2.06h-5.289l11.47,28.228l9.272-26.717c0.045-0.137,0.045-0.297,0-0.481
		c-0.046-0.182-0.195-0.343-0.446-0.481c-0.252-0.137-0.652-0.263-1.202-0.378C34.547,2.118,33.792,2.06,32.83,2.06h-2.335V0h14.355
		v2.06h-2.816c-0.412,0-0.779,0.058-1.099,0.172c-0.321,0.115-0.653,0.436-0.996,0.961c-0.343,0.527-0.745,1.317-1.202,2.37
		c-0.458,1.054-1.008,2.519-1.648,4.396L24.245,46.91h-2.129L3.915,2.06H0V0z"/>
	<path class="st0" d="M47.527,45.88v-2.06h5.083V2.06h-5.083V0h22.39v2.06h-5.769v41.759h5.769v2.06H47.527z"/>
	<path class="st0" d="M83.379,18.269c0.732,0,1.453,0.149,2.163,0.446c0.709,0.298,1.316,0.699,1.82,1.202
		c0.503,0.504,0.915,1.099,1.236,1.786c0.32,0.687,0.481,1.42,0.481,2.198c0,1.603-0.561,2.943-1.683,4.018
		c-1.122,1.076-2.462,1.614-4.018,1.614c-1.557,0-2.885-0.56-3.984-1.683c-1.099-1.121-1.648-2.438-1.648-3.949
		c0-0.732,0.148-1.442,0.446-2.129c0.297-0.687,0.709-1.293,1.236-1.82c0.526-0.526,1.121-0.938,1.786-1.236
		C81.879,18.419,82.6,18.269,83.379,18.269z M83.379,35.646c0.732,0,1.453,0.149,2.163,0.446c0.709,0.298,1.316,0.699,1.82,1.202
		c0.503,0.504,0.915,1.099,1.236,1.786c0.32,0.687,0.481,1.42,0.481,2.198c0,1.603-0.561,2.943-1.683,4.018
		c-1.122,1.075-2.462,1.614-4.018,1.614c-1.557,0-2.885-0.561-3.984-1.683c-1.099-1.122-1.648-2.438-1.648-3.949
		c0-0.732,0.148-1.442,0.446-2.129c0.297-0.687,0.709-1.293,1.236-1.82c0.526-0.526,1.121-0.938,1.786-1.236
		C81.879,35.795,82.6,35.646,83.379,35.646z"/>
	<path class="st0" d="M144.917,43.819h5.701v2.06h-22.871v-2.06h6.113V2.404h-0.137L120.329,45.88h-2.473L104.738,2.266h-0.137
		v37.432c0,1.145,0.148,2.004,0.446,2.576c0.297,0.573,0.721,0.973,1.271,1.202c0.549,0.23,1.213,0.343,1.992,0.343
		c0.824,0,1.74,0,2.747,0v2.06H96.428v-2.06c0.961,0,1.808,0,2.541,0c0.778,0,1.431-0.114,1.957-0.343
		c0.526-0.229,0.927-0.629,1.202-1.202c0.275-0.572,0.412-1.431,0.412-2.576V2.06h-6.113V0h19.3l7.967,27.679L132.005,0h18.613v2.06
		h-5.701V43.819z"/>
	<path class="st0" d="M153.914,0h22.734v2.06h-5.769v33.242c0,1.603,0.126,2.988,0.378,4.155c0.251,1.168,0.721,2.153,1.408,2.953
		c0.687,0.802,1.637,1.408,2.85,1.82c1.213,0.412,2.782,0.618,4.705,0.618c1.374,0,2.586-0.137,3.64-0.412
		c1.053-0.275,1.98-0.629,2.782-1.065c0.801-0.435,1.487-0.927,2.06-1.477c0.572-0.549,1.041-1.075,1.408-1.58
		c0.412-0.412,0.721-1.041,0.927-1.889c0.206-0.847,0.354-1.831,0.446-2.953c0.091-1.122,0.148-2.346,0.172-3.675
		c0.023-1.328,0.034-2.701,0.034-4.121V4.602c0-0.687-0.264-1.281-0.79-1.786c-0.527-0.503-1.294-0.755-2.301-0.755h-3.091V0H200
		v2.06h-4.121c-0.779,0-1.329,0.252-1.648,0.755c-0.321,0.504-0.481,1.099-0.481,1.786V32.83c0,1.741-0.149,3.458-0.447,5.151
		c-0.298,1.695-1.042,3.206-2.232,4.533c-1.282,1.42-3.022,2.507-5.22,3.262c-2.198,0.755-5.243,1.133-9.135,1.133
		c-2.839,0-5.335-0.264-7.486-0.79c-2.153-0.526-3.961-1.384-5.426-2.576c-1.466-1.19-2.576-2.735-3.331-4.636
		c-0.755-1.899-1.133-4.246-1.133-7.04V2.06h-5.426V0z"/>
</g>
</svg>
