<?xml version="1.0" encoding="utf-8"?>
<!-- Generator: Adobe Illustrator 26.0.1, SVG Export Plug-In . SVG Version: 6.00 Build 0)  -->
<svg version="1.1" id="Ebene_1" xmlns="http://www.w3.org/2000/svg" xmlns:xlink="http://www.w3.org/1999/xlink" x="0px" y="0px"
	 viewBox="0 0 360.9 214" style="enable-background:new 0 0 360.9 214;" xml:space="preserve">
<style type="text/css">
	.st0{fill:#FFFFFF;}
</style>
<g>
	<g>
		<polygon class="st0" points="88.5,0 88.5,2.3 78.2,2.3 47.3,89 39,89 8.9,2.3 0,2.3 0,0 41.9,0 41.9,2.3 29.9,2.3 51.6,69.6 
			75.6,2.3 61.8,2.3 61.8,0 		"/>
		<polygon class="st0" points="93.6,87.3 93.5,85.1 106.4,85.1 106.4,2.3 93.6,2.3 93.5,0 138.4,0 138.4,2.3 124.4,2.3 124.4,85.1 
			138.4,85.1 138.4,87.3 		"/>
		<path class="st0" d="M156.2,88.5c-1.9,0-3.7-0.5-5.3-1.4c-1.6-1-2.8-2.2-3.8-3.8c-1-1.6-1.4-3.3-1.4-5.3c0-1.9,0.5-3.7,1.4-5.3
			c1-1.6,2.2-2.9,3.8-3.8c1.6-0.9,3.3-1.4,5.3-1.5c1.9,0,3.7,0.5,5.3,1.5c1.6,0.9,2.9,2.2,3.8,3.8c0.9,1.6,1.4,3.4,1.4,5.3
			c0,1.9-0.5,3.7-1.4,5.3c-0.9,1.6-2.2,2.8-3.8,3.8C159.8,88,158.1,88.5,156.2,88.5z M156.2,45.4c-1.9,0-3.7-0.5-5.3-1.4
			c-1.6-1-2.8-2.2-3.8-3.8c-1-1.6-1.4-3.3-1.4-5.3c0-1.9,0.5-3.7,1.4-5.3s2.2-2.9,3.8-3.8c1.6-0.9,3.3-1.4,5.3-1.5
			c1.9,0,3.7,0.5,5.3,1.5c1.6,0.9,2.9,2.2,3.8,3.8c0.9,1.6,1.4,3.4,1.4,5.3c0,1.9-0.5,3.7-1.4,5.3c-0.9,1.6-2.2,2.8-3.8,3.8
			C159.8,44.9,158.1,45.4,156.2,45.4z"/>
		<path class="st0" d="M275.1,0v2.3h-8.2v82.8h8.2v2.3h-35.6v-2.3h9.3V0H275.1z M185,0v85.1h8.6v2.3h-19.3v-2.3h8.3V2.3h-8.9V0H185z
			 M216.2,88.5L183.9,0H202l23.3,62.7L247,0h2.4l-30.5,88.5H216.2z"/>
		<path class="st0" d="M360.9,0v2.3H350v58.3c0,9.6-2.3,16.7-6.9,21.4c-4.6,4.7-11.6,7-21.1,7c-10.9,0-18.9-2.2-24-6.7
			c-5-4.5-7.5-11.7-7.5-21.8V2.3h-10.5V0h40.2v2.3h-11.6v57.1c0,3.8,0.2,7.4,0.7,10.6c0.5,3.2,1.4,6,2.6,8.4
			c1.3,2.4,3.1,4.2,5.4,5.5c2.3,1.3,5.4,2,9.1,2c4.2,0,7.9-0.8,11.1-2.5c3.2-1.7,5.6-4.3,7.4-8c1.8-3.7,2.7-8.6,2.7-14.7V2.3h-10.5
			V0H360.9z"/>
		<polygon class="st0" points="40.7,154.5 42.2,154.5 42.2,131.5 51.3,131.5 51.3,130.1 31.6,130.1 31.6,131.5 40.7,131.5 		"/>
		<path class="st0" d="M54.6,154.5h1.5V146c0-0.8,0.1-1.6,0.3-2.4c0.9-3.2,3.8-5.5,7-5.5c3.9,0,4.3,2.9,4.3,5.9v10.5h1.5v-11
			c0-4.1-1.2-6.8-5.8-6.8c-4.4,0-6.8,3.3-7.4,4.9H56c0,0,0.1-0.6,0.1-1.4v-10h-1.5V154.5z"/>
		<path class="st0" d="M75.5,144.2c0.6-4.1,3.6-6.2,6.8-6.2c2.9,0,5.4,1.9,5.6,6.2H75.5z M73.8,145.8c0,5.5,4.1,9.1,9,9.1
			c3.8,0,6.2-2.4,6.2-2.4l-0.8-1.2c0,0-2.1,2.2-5.4,2.2c-4,0-7.5-2.9-7.5-7.9h14c0,0,0.1-0.6,0.1-0.9c0-4.2-2.4-7.9-7.1-7.9
			C77.9,136.6,73.8,139.9,73.8,145.8z"/>
		<path class="st0" d="M110.6,154.5h1.6l9.1-24.4h-1.6l-7.4,19.7c-0.4,1.2-0.9,2.9-0.9,2.9h-0.1c0,0-0.5-1.8-0.9-2.9l-7.4-19.7h-1.6
			L110.6,154.5z"/>
		<path class="st0" d="M125.1,154.5h1.5v-17.4h-1.5V154.5z M124.9,132.6h1.7v-2.5h-1.7V132.6z"/>
		<path class="st0" d="M132.7,154.5h1.5V147c0-1.2,0.1-2.4,0.5-3.7c0.8-2.6,2.5-4.9,5.2-4.9c0.4,0,0.8,0.1,0.8,0.1V137
			c0,0-0.5-0.1-1-0.1c-2.8,0-4.7,2.2-5.6,4.9H134c0,0,0.1-0.6,0.1-1.4v-3.3h-1.5V154.5z"/>
		<path class="st0" d="M145,148.2c0,5.8,3.7,6.4,5.5,6.4c0.5,0,0.9-0.1,0.9-0.1v-1.4c0,0-0.3,0.1-0.8,0.1c-1.4,0-4.1-0.6-4.1-5.2
			v-9.6h4.6v-1.3h-4.6v-4.9H145v4.9h-2.3v1.3h2.3V148.2z"/>
		<path class="st0" d="M155.1,148.1c0,4.4,1.5,6.8,5.8,6.8c4.2,0,6.6-3.3,7.2-4.9h0.1c0,0-0.1,0.6-0.1,1.4v3.1h1.5v-17.4H168v8.5
			c0,4.1-2.8,7.9-7.1,7.9c-3.9,0-4.3-2.9-4.3-5.9v-10.5h-1.5V148.1z"/>
		<path class="st0" d="M175.7,149.7c0-4.5,6.3-4.5,9.3-4.5h1.1v0.9c0,3.5-2.2,7.4-6,7.4C177.2,153.5,175.7,151.6,175.7,149.7z
			 M174.2,149.9c0,3.5,3.1,5.1,5.9,5.1c4.5,0,6.1-4.3,6.1-4.3h0.1c0,0-0.1,0.6-0.1,1.6v2.3h1.5v-11.3c0-4.4-2.2-6.6-6.2-6.6
			c-3.8,0-5.9,1.9-5.9,1.9l0.8,1.2c0,0,2-1.7,5-1.7c2.8,0,4.8,1.3,4.8,5.2v0.6H185C181.9,143.9,174.2,143.9,174.2,149.9z"/>
		<path class="st0" d="M193.3,151c0,3.3,2.4,3.7,3.4,3.7c0.3,0,0.6-0.1,0.6-0.1v-1.4c0,0-0.2,0-0.5,0c-0.8,0-2.1-0.3-2.1-2.7v-20.4
			h-1.5V151z"/>
		<path class="st0" d="M211.2,154.5h1.5l1.5-18.6c0.1-1.2,0.1-3.3,0.1-3.3h0.1c0,0,0.8,2.2,1.3,3.3l6.5,13.9h1.5l6.6-13.9
			c0.6-1.2,1.3-3.2,1.3-3.2h0.1c0,0,0,2.1,0.1,3.2l1.5,18.6h1.5l-2-24.4h-1.5l-7.1,15.3c-0.6,1.2-1.2,2.8-1.2,2.8h-0.1
			c0,0-0.6-1.6-1.2-2.8l-7.1-15.3h-1.5L211.2,154.5z"/>
		<path class="st0" d="M240.6,148.1c0,4.4,1.5,6.8,5.8,6.8c4.2,0,6.6-3.3,7.2-4.9h0.1c0,0-0.1,0.6-0.1,1.4v3.1h1.5v-17.4h-1.5v8.5
			c0,4.1-2.8,7.9-7.1,7.9c-3.9,0-4.3-2.9-4.3-5.9v-10.5h-1.5L240.6,148.1L240.6,148.1z"/>
		<path class="st0" d="M259.6,152.4c0,0,2.1,2.5,6.3,2.5c3.2,0,5.6-1.9,5.6-4.7c0-5.8-9.6-4.4-9.6-9c0-2.3,2-3.2,3.9-3.2
			c3,0,4.4,1.6,4.4,1.6l0.9-1.2c0,0-1.6-1.9-5.2-1.9c-3,0-5.6,1.6-5.6,4.7c0,5.7,9.6,4.4,9.6,8.9c0,2.2-1.9,3.3-4,3.3
			c-3.5,0-5.4-2.2-5.4-2.2L259.6,152.4z"/>
		<path class="st0" d="M276.7,144.2c0.6-4.1,3.6-6.2,6.8-6.2c2.9,0,5.4,1.9,5.6,6.2H276.7z M275,145.8c0,5.5,4.1,9.1,9,9.1
			c3.8,0,6.2-2.4,6.2-2.4l-0.8-1.2c0,0-2.1,2.2-5.4,2.2c-4,0-7.5-2.9-7.5-7.9h14c0,0,0.1-0.6,0.1-0.9c0-4.2-2.4-7.9-7.1-7.9
			C279,136.6,275,139.9,275,145.8z"/>
		<path class="st0" d="M295.3,148.1c0,4.4,1.5,6.8,5.8,6.8c4.2,0,6.6-3.3,7.2-4.9h0.1c0,0-0.1,0.6-0.1,1.4v3.1h1.5v-17.4h-1.5v8.5
			c0,4.1-2.8,7.9-7.1,7.9c-3.9,0-4.3-2.9-4.3-5.9v-10.5h-1.5V148.1L295.3,148.1z"/>
		<path class="st0" d="M315.8,154.5h1.5V146c0-0.8,0.1-1.6,0.3-2.4c0.8-2.9,3.2-5.6,6.3-5.6c3.8,0,4.3,3,4.3,6v10.5h1.5V146
			c0-1,0.1-1.9,0.3-2.7c0.8-2.7,3.2-5.3,6.1-5.3c3.7,0,4.4,2.7,4.4,6v10.5h1.5v-11c0-4.1-1.3-6.8-5.8-6.8c-3,0-5.6,2.3-6.6,4.7h-0.1
			c-0.4-3.1-2-4.7-5.5-4.7c-2.7,0-5.8,2.3-6.7,4.9h-0.1c0,0,0.1-0.6,0.1-1.4v-3.1h-1.5V154.5z"/>
	</g>
	<g>
		<path class="st0" d="M128.5,210.2c-0.4,0.4-1.1,0.7-1.8,0.7c-0.8,0-1.5-0.2-2.1-1v0.9h-1.1v-10.9h1.1v4.2c0.6-0.8,1.3-1,2.1-1
			c0.8,0,1.4,0.3,1.8,0.7c0.8,0.8,0.9,2,0.9,3.2C129.4,208.1,129.3,209.4,128.5,210.2z M126.5,204.1c-1.6,0-1.9,1.4-1.9,2.9
			s0.3,2.9,1.9,2.9c1.6,0,1.9-1.4,1.9-2.9S128.1,204.1,126.5,204.1z"/>
		<path class="st0" d="M133.7,212.5c-0.2,0.4-0.3,0.7-0.5,0.9c-0.4,0.4-0.9,0.5-1.5,0.5h-0.5v-1h0.3c0.8,0,1-0.2,1.2-0.9l0.5-1.5
			l-2.7-7.4h1.2l2.1,6l2.1-6h1.2L133.7,212.5z"/>
		<path class="st0" d="M149,210.7l-0.9-2.5h-4.8l-0.9,2.5h-1.2l4-10.9h1l4,10.9H149z M145.8,201.5l-2.1,5.8h4.1L145.8,201.5z"/>
		<path class="st0" d="M154.2,210.8c-1.3,0-2.3-0.3-3.1-1.1l0.7-0.7c0.6,0.6,1.4,0.9,2.3,0.9c1.2,0,2-0.4,2-1.3c0-0.7-0.4-1-1.3-1.1
			l-1.2-0.1c-1.5-0.1-2.2-0.8-2.2-2c0-1.4,1.2-2.2,2.8-2.2c1.1,0,2,0.3,2.7,0.8l-0.7,0.7c-0.5-0.4-1.2-0.6-2-0.6
			c-1.1,0-1.7,0.5-1.7,1.2c0,0.6,0.4,1,1.3,1.1l1.2,0.1c1.3,0.1,2.2,0.6,2.2,2C157.2,210,156,210.8,154.2,210.8z"/>
		<path class="st0" d="M159.3,201.1v-1.2h1.2v1.2H159.3z M159.4,210.7v-7.5h1.1v7.5H159.4z"/>
		<path class="st0" d="M167.5,210.7V210c-0.6,0.6-1.2,0.8-2.2,0.8c-1,0-1.7-0.2-2.1-0.7c-0.4-0.4-0.6-0.9-0.6-1.5
			c0-1.3,0.9-2.2,2.6-2.2h2.3v-0.7c0-1.1-0.5-1.7-1.9-1.7c-1,0-1.5,0.2-1.9,0.9l-0.7-0.7c0.7-0.9,1.4-1.1,2.7-1.1c2,0,3,0.9,3,2.5
			v5.1L167.5,210.7L167.5,210.7z M167.5,207.3h-2.1c-1.1,0-1.7,0.5-1.7,1.3s0.5,1.3,1.7,1.3c0.6,0,1.2,0,1.7-0.5
			c0.3-0.2,0.4-0.7,0.4-1.3V207.3z"/>
		<path class="st0" d="M176.1,210.7v-4.6c0-1.3-0.7-2-1.9-2c-1.1,0-1.9,0.7-1.9,2v4.6h-1.1v-7.5h1.1v0.8c0.5-0.6,1.3-0.9,2.1-0.9
			c0.8,0,1.5,0.2,1.9,0.7c0.5,0.5,0.8,1.2,0.8,2.1v4.8L176.1,210.7L176.1,210.7z"/>
		<path class="st0" d="M186.4,210.7l-0.9-2.5h-4.8l-0.9,2.5h-1.2l4-10.9h1l4,10.9H186.4z M183.2,201.5l-2.1,5.8h4.1L183.2,201.5z"/>
		<path class="st0" d="M193.5,204.6c-0.4-0.4-0.7-0.6-1.3-0.6c-1.1,0-1.8,0.9-1.8,2v4.6h-1.1v-7.5h1.1v0.9c0.4-0.6,1.2-1,2.1-1
			c0.7,0,1.3,0.2,1.8,0.7L193.5,204.6z"/>
		<path class="st0" d="M197.8,210.7c-1.3,0-1.9-0.9-1.9-2v-4.6h-0.9v-0.8h0.9v-2.4h1.1v2.4h1.6v0.8H197v4.6c0,0.7,0.3,1.1,1,1.1h0.6
			v0.9H197.8z"/>
		<path class="st0" d="M201.1,206.1v-1.4h1.4v1.4H201.1z M201.1,210.7v-1.4h1.4v1.4H201.1z"/>
		<path class="st0" d="M206.7,200.9v4h4.8v1h-4.8v4.8h-1.2v-10.9h6.8v1L206.7,200.9L206.7,200.9z"/>
		<path class="st0" d="M218.5,210.7v-0.8c-0.5,0.6-1.3,0.9-2.1,0.9c-0.8,0-1.5-0.2-1.9-0.7c-0.5-0.5-0.8-1.2-0.8-2.1v-4.8h1.1v4.6
			c0,1.3,0.7,2,1.8,2c1.1,0,1.9-0.7,1.9-2v-4.6h1.1v7.5L218.5,210.7L218.5,210.7z"/>
		<path class="st0" d="M224.4,210.7c-1.3,0-1.9-0.9-1.9-2v-4.6h-0.9v-0.8h0.9v-2.4h1.1v2.4h1.6v0.8h-1.6v4.6c0,0.7,0.3,1.1,1,1.1
			h0.6v0.9H224.4z"/>
		<path class="st0" d="M232.2,210.7v-0.8c-0.5,0.6-1.3,0.9-2.1,0.9c-0.8,0-1.5-0.2-1.9-0.7c-0.5-0.5-0.8-1.2-0.8-2.1v-4.8h1.1v4.6
			c0,1.3,0.7,2,1.8,2c1.1,0,1.9-0.7,1.9-2v-4.6h1.1v7.5L232.2,210.7L232.2,210.7z"/>
		<path class="st0" d="M240.2,204.6c-0.4-0.4-0.7-0.6-1.3-0.6c-1.1,0-1.8,0.9-1.8,2v4.6H236v-7.5h1.1v0.9c0.4-0.6,1.2-1,2.1-1
			c0.7,0,1.3,0.2,1.8,0.7L240.2,204.6z"/>
		<path class="st0" d="M242.6,207.3c0,1.7,0.8,2.6,2.2,2.6c0.9,0,1.4-0.3,2-0.9l0.7,0.7c-0.8,0.8-1.5,1.2-2.8,1.2
			c-2,0-3.3-1.2-3.3-3.9c0-2.4,1.2-3.9,3.1-3.9c1.9,0,3.1,1.4,3.1,3.6v0.5L242.6,207.3L242.6,207.3z M246.4,205.2
			c-0.3-0.7-1-1.1-1.8-1.1c-0.8,0-1.5,0.4-1.8,1.1c-0.2,0.4-0.2,0.6-0.2,1.3h4C246.6,205.8,246.5,205.6,246.4,205.2z"/>
	</g>
</g>
</svg>
